/* XPM */
static char *_5d9b679108d48d0ed00d5e917286962T2WEUC0bpw6gw0ul[] = {
/* columns rows colors chars-per-pixel */
"64 64 6 1 ",
"  c None",
". c #02050B",
"X c #453362",
"o c #6B6995",
"O c #9BABC9",
"+ c white",
/* pixels */
"         +++++++++                   +++++++++                  ",
"         +++++++++                   +++++++++                  ",
"         +++++++++                   +++++++++                  ",
"         +++++++++                   +++++++++                  ",
"         OOOOO+++++++++++++++++++++++OOOO+++++                  ",
"         OOOOO+++++++++++++++++++++++OOOO+++++                  ",
"         OOOOO+++++++++++++++++++++++OOOO+++++                  ",
"         OOOOO+++++++++++++++++++++++OOOO+++++                  ",
"         OOOOO+++++++++++++++++++++++OOOO+++++                  ",
"         ++++++++++++++++++++++++++++++++                       ",
"         ++++++++++++++++++++++++++++++++                       ",
"         ++++++++++++++++++++++++++++++++                       ",
"         ++++++++++++++++++++++++++++++++                       ",
"         OOOOO....+++++++++.....OOOOO++++                       ",
"         OOOOO....+++++++++.....OOOOO++++                       ",
"         OOOOO....+++++++++.....OOOOO++++                       ",
"         OOOOO....+++++++++.....OOOOO++++                       ",
"         +++++OOOO.........OOOOO+++++++++                       ",
"         +++++OOOO.........OOOOO+++++++++                       ",
"         +++++OOOO.........OOOOO+++++++++                       ",
"         +++++OOOO.........OOOOO+++++++++                       ",
"         ++++++++++++++++++++++++++++++++                       ",
"         ++++++++++++++++++++++++++++++++                       ",
"         ++++++++++++++++++++++++++++++++                       ",
"         ++++++++++++++++++++++++++++++++                       ",
"         ++++++++++++++++++++++++++++++++                       ",
"         +++++++++.........++++++++++OOOO                       ",
"         +++++++++.........++++++++++OOOO                       ",
"         +++++++++.........++++++++++OOOO                       ",
"         +++++++++.........++++++++++OOOO                       ",
"     ++++OOOOO++++++++++++++++++OOOOO+++++++++                  ",
"     ++++OOOOO++++++++++++++++++OOOOO+++++++++                  ",
"     ++++OOOOO++++++++++++++++++OOOOO+++++++++                  ",
"     ++++OOOOO++++++++++++++++++OOOOO+++++++++                  ",
"++++++++++++++OOOOOOOOOOOOOOOOOO+++++OOOO+++++++++              ",
"++++++++++++++OOOOOOOOOOOOOOOOOO+++++OOOO+++++++++              ",
"++++++++++++++OOOOOOOOOOOOOOOOOO+++++OOOO+++++++++              ",
"++++++++++++++OOOOOOOOOOOOOOOOOO+++++OOOO+++++++++              ",
"++++++++++++++++++OOOOOOOOO++++++++++OOOO+++++++++     XXXX     ",
"++++++++++++++++++OOOOOOOOO++++++++++OOOO+++++++++     XXXX     ",
"++++++++++++++++++OOOOOOOOO++++++++++OOOO+++++++++     XXXX     ",
"++++++++++++++++++OOOOOOOOO++++++++++OOOO+++++++++     XXXX     ",
"++++++++++++++++++OOOOOOOOO++++++++++OOOO+++++++++     XXXX     ",
"+++++++++OOOOO++++++++++++++++++XXXXXXXXX+++++++++XXXXXXXXXXXXXX",
"+++++++++OOOOO++++++++++++++++++XXXXXXXXX+++++++++XXXXXXXXXXXXXX",
"+++++++++OOOOO++++++++++++++++++XXXXXXXXX+++++++++XXXXXXXXXXXXXX",
"+++++++++OOOOO++++++++++++++++++XXXXXXXXX+++++++++XXXXXXXXXXXXXX",
"     ++++OOOOOOOOO+++++++++OOOOOXXXXX....+++++++++ooooo         ",
"     ++++OOOOOOOOO+++++++++OOOOOXXXXX....+++++++++ooooo         ",
"     ++++OOOOOOOOO+++++++++OOOOOXXXXX....+++++++++ooooo         ",
"     ++++OOOOOOOOO+++++++++OOOOOXXXXX....+++++++++ooooo         ",
"         +++++OOOOOOOOOOOOOOOOOOXXXXXXXXXooooooooo              ",
"         +++++OOOOOOOOOOOOOOOOOOXXXXXXXXXooooooooo              ",
"         +++++OOOOOOOOOOOOOOOOOOXXXXXXXXXooooooooo              ",
"         +++++OOOOOOOOOOOOOOOOOOXXXXXXXXXooooooooo              ",
"         +++++OOOOOOOOOOOOO++++++++++++++                       ",
"         +++++OOOOOOOOOOOOO++++++++++++++                       ",
"         +++++OOOOOOOOOOOOO++++++++++++++                       ",
"         +++++OOOOOOOOOOOOO++++++++++++++                       ",
"         +++++OOOOOOOOOOOOO++++++++++++++                       ",
"     ++++OOOOOOOOOOOOOO++++++++++++++++++                       ",
"     ++++OOOOOOOOOOOOOO++++++++++++++++++                       ",
"     ++++OOOOOOOOOOOOOO++++++++++++++++++                       ",
"     ++++OOOOOOOOOOOOOO++++++++++++++++++                       "
};
