/* XPM */
static char *_78fcc5337d0452bf78f70ace5a8263bJ0GossYe2P8jvIse[] = {
/* columns rows colors chars-per-pixel */
"64 64 7 1 ",
"  c None",
". c #11151A",
"X c #12161B",
"o c #493962",
"O c #6B6993",
"+ c #99A9C7",
"@ c white",
/* pixels */
"               @@@@@@@@@@                   @@@@@@@@@@          ",
"               @@@@@@@@@@                   @@@@@@@@@@          ",
"               @@@@@@@@@@                   @@@@@@@@@@          ",
"               @@@@@@@@@@                   @@@@@@@@@@          ",
"               @@@@@+++++@@@@@@@@@@@@@@@@@@@@@@@@+++++          ",
"               @@@@@+++++@@@@@@@@@@@@@@@@@@@@@@@@+++++          ",
"               @@@@@+++++@@@@@@@@@@@@@@@@@@@@@@@@+++++          ",
"               @@@@@+++++@@@@@@@@@@@@@@@@@@@@@@@@+++++          ",
"                    @@@@@@@@@@@@@@@@@@@@@@@@@@@@@@@@@@          ",
"                    @@@@@@@@@@@@@@@@@@@@@@@@@@@@@@@@@@          ",
"                    @@@@@@@@@@@@@@@@@@@@@@@@@@@@@@@@@@          ",
"                    @@@@@@@@@@@@@@@@@@@@@@@@@@@@@@@@@@          ",
"                    @@@@@+++++XXXX@@@@@@@@@@XXXXX+++++          ",
"                    @@@@@+++++XXXX@@@@@@@@@@XXXXX+++++          ",
"                    @@@@@+++++XXXX@@@@@@@@@@XXXXX+++++          ",
"                    @@@@@+++++XXXX@@@@@@@@@@XXXXX+++++          ",
"                    @@@@@@@@@@++++XXXXXXXXXX+++++@@@@@          ",
"                    @@@@@@@@@@++++XXXXXXXXXX+++++@@@@@          ",
"                    @@@@@@@@@@++++XXXXXXXXXX+++++@@@@@          ",
"                    @@@@@@@@@@++++XXXXXXXXXX+++++@@@@@          ",
"                    @@@@@@@@@@@@@@@@@@@@@@@@@@@@@@@@@@          ",
"                    @@@@@@@@@@@@@@@@@@@@@@@@@@@@@@@@@@          ",
"                    @@@@@@@@@@@@@@@@@@@@@@@@@@@@@@@@@@          ",
"                    @@@@@@@@@@@@@@@@@@@@@@@@@@@@@@@@@@          ",
"                    @@@@@@@@@@@@@@XXXXXXXXXX@@@@@@@@@@          ",
"                    @@@@@@@@@@@@@@XXXXXXXXXX@@@@@@@@@@          ",
"                    @@@@@@@@@@@@@@XXXXXXXXXX@@@@@@@@@@          ",
"                    @@@@@@@@@@@@@@XXXXXXXXXX@@@@@@@@@@          ",
"               @@@@@@@@@@+++++@@@@XXXXXXXXXX@@@@@+++++@@@@@     ",
"               @@@@@@@@@@+++++@@@@XXXXXXXXXX@@@@@+++++@@@@@     ",
"               @@@@@@@@@@+++++@@@@XXXXXXXXXX@@@@@+++++@@@@@     ",
"               @@@@@@@@@@+++++@@@@XXXXXXXXXX@@@@@+++++@@@@@     ",
"          @@@@@@@@@@@@@@@+++++++++@@@@@@@@@@++++++++++@@@@@@@@@@",
"          @@@@@@@@@@@@@@@+++++++++@@@@@@@@@@++++++++++@@@@@@@@@@",
"          @@@@@@@@@@@@@@@+++++++++@@@@@@@@@@++++++++++@@@@@@@@@@",
"          @@@@@@@@@@@@@@@+++++++++@@@@@@@@@@++++++++++@@@@@@@@@@",
"     ooooo@@@@@@@@@@+++++@@@@@+++++++++++++++++++@@@@@@@@@@@@@@@",
"     ooooo@@@@@@@@@@+++++@@@@@+++++++++++++++++++@@@@@@@@@@@@@@@",
"     ooooo@@@@@@@@@@+++++@@@@@+++++++++++++++++++@@@@@@@@@@@@@@@",
"     ooooo@@@@@@@@@@+++++@@@@@+++++++++++++++++++@@@@@@@@@@@@@@@",
"oooooooooo@@@@@@@@@@oooooooooo@@@@++++++++++@@@@@@@@@@@@@@@@@@@@",
"oooooooooo@@@@@@@@@@oooooooooo@@@@++++++++++@@@@@@@@@@@@@@@@@@@@",
"oooooooooo@@@@@@@@@@oooooooooo@@@@++++++++++@@@@@@@@@@@@@@@@@@@@",
"oooooooooo@@@@@@@@@@oooooooooo@@@@++++++++++@@@@@@@@@@@@@@@@@@@@",
"     OOOOO@@@@@@@@@@.....ooooo@@@@@@@@@@@@@@@@@@@+++++@@@@@     ",
"     OOOOO@@@@@@@@@@....Xooooo@@@@@@@@@@@@@@@@@@@+++++@@@@@     ",
"     OOOOO@@@@@@@@@@....Xooooo@@@@@@@@@@@@@@@@@@@+++++@@@@@     ",
"     OOOOO@@@@@@@@@@....Xooooo@@@@@@@@@@@@@@@@@@@+++++@@@@@     ",
"          OOOOOOOOOOoooooooooo++++@@@@@@@@@@++++++++++          ",
"          OOOOOOOOOOoooooooooo++++@@@@@@@@@@++++++++++          ",
"          OOOOOOOOOOoooooooooo++++@@@@@@@@@@++++++++++          ",
"          OOOOOOOOOOoooooooooo++++@@@@@@@@@@++++++++++          ",
"                    @@@@@@@@@@+++++++++++++++++++@@@@@          ",
"                    @@@@@@@@@@+++++++++++++++++++@@@@@          ",
"                    @@@@@@@@@@+++++++++++++++++++@@@@@          ",
"                    @@@@@@@@@@+++++++++++++++++++@@@@@          ",
"                    @@@@@@@@@@@@@@     ++++++++++@@@@@          ",
"                    @@@@@@@@@@@@@@     ++++++++++@@@@@          ",
"                    @@@@@@@@@@@@@@     ++++++++++@@@@@          ",
"                    @@@@@@@@@@@@@@     ++++++++++@@@@@          ",
"                    @@@@@@@@@@@@@@     ++++++++++@@@@@          ",
"                    @@@@@@@@@@@@@@     ++++++++++@@@@@          ",
"                    @@@@@@@@@@@@@@     ++++++++++@@@@@          ",
"                    @@@@@@@@@@@@@@     ++++++++++@@@@@          "
};
