/* XPM */
static char *result[] = {
/* columns rows colors chars-per-pixel */
"64 64 188 2 ",
"   c #080C19",
".  c #05163F",
"X  c #20283A",
"o  c #011548",
"O  c #021C5A",
"+  c #05277A",
"@  c #505358",
"#  c #485678",
"$  c #6C6C6C",
"%  c #737476",
"&  c #002989",
"*  c #002787",
"=  c #012C96",
"-  c #0F389C",
";  c #012FA7",
":  c #0C3BAD",
">  c #0534A6",
",  c #1137AB",
"<  c #133BAD",
"1  c #1B3DAB",
"2  c #153EB0",
"3  c #223DAB",
"4  c #1441AF",
"5  c #1443B1",
"6  c #1B44B2",
"7  c #1E4AB3",
"8  c #2B44AC",
"9  c #3343AB",
"0  c #3A47AB",
"q  c #224DB5",
"w  c #2C4BB2",
"e  c #394FB1",
"r  c #374FB2",
"t  c #2452B7",
"y  c #2954B7",
"u  c #2D55B8",
"i  c #2D59BA",
"p  c #3252B5",
"a  c #3A52B3",
"s  c #3156BA",
"d  c #345BBB",
"f  c #395DBC",
"g  c #3C63BE",
"h  c #4A629C",
"j  c #424BAF",
"k  c #594EA8",
"l  c #4F52AE",
"z  c #5756AF",
"x  c #5E5AAF",
"c  c #4F58B2",
"v  c #5158B1",
"b  c #6859AD",
"n  c #685AB5",
"m  c #576FAD",
"M  c #4265BE",
"N  c #4B65BA",
"B  c #5469BD",
"V  c #7360AF",
"C  c #6463B4",
"Z  c #6369B9",
"A  c #6D6FBB",
"S  c #6867BC",
"D  c #786BB6",
"F  c #7071BB",
"G  c #4265C0",
"H  c #456AC1",
"J  c #4A6DC2",
"K  c #546EC1",
"L  c #4D72C4",
"P  c #5375C6",
"I  c #5678C7",
"U  c #5978C7",
"Y  c #5C7CC9",
"T  c #5777C8",
"R  c #617EC9",
"E  c #6876C1",
"W  c #747EC4",
"Q  c #797BC5",
"!  c #967CBB",
"~  c #9364AA",
"^  c #A97AB4",
"/  c #857FC0",
"(  c #5E80CA",
")  c #6382CB",
"_  c #6A86CD",
"`  c #6C89CE",
"'  c #6689CE",
"]  c #7B8DCF",
"[  c #7188CC",
"{  c #728ED0",
"}  c #7591D1",
"|  c #7A95D3",
" . c #7E9AD5",
".. c #8D8D8D",
"X. c #929292",
"o. c #A285BD",
"O. c #BC8BBC",
"+. c #A6A7AA",
"@. c #BCBCBC",
"#. c #878AC8",
"$. c #998DC5",
"%. c #839CD6",
"&. c #899DD5",
"*. c #869FD8",
"=. c #A380C3",
"-. c #A394C9",
";. c #A99ACB",
":. c #B49AC9",
">. c #89A0D7",
",. c #87A2D8",
"<. c #8CA3D9",
"1. c #85A1D7",
"2. c #92A6DA",
"3. c #96AADC",
"4. c #99ADDD",
"5. c #9EB0DE",
"6. c #B4A1CD",
"7. c #A1ADDC",
"8. c #AEA8D6",
"9. c #B9ACD6",
"0. c #B5B4D5",
"q. c #9FB2E0",
"w. c #A4B6E1",
"e. c #A6B8E2",
"r. c #ABBBE3",
"t. c #AAB7E0",
"y. c #B9BAE0",
"u. c #C69DC6",
"i. c #CAA6CC",
"p. c #C9AACF",
"a. c #D0ABCD",
"s. c #C5AED3",
"d. c #D9B9D6",
"f. c #DABFDA",
"g. c #D3B8DB",
"h. c #D0B3D7",
"j. c #BCC6DD",
"k. c #B4C3E6",
"l. c #BCC6E6",
"z. c #BDCAE9",
"x. c #BAC7E8",
"c. c #CACACA",
"v. c #C6C6C7",
"b. c #DDC5DD",
"n. c #D6C5DF",
"m. c #DDDDDD",
"M. c #D5D5D5",
"N. c #C7CBD4",
"B. c #E3CADF",
"V. c #F1C1DD",
"C. c #C2CEEB",
"Z. c #C6C9E7",
"A. c #D2CCE7",
"S. c #DFCCE2",
"D. c #C6D1EC",
"F. c #CAD4ED",
"G. c #CED8EF",
"H. c #D3D3EA",
"J. c #D0D9EF",
"K. c #DED3E6",
"L. c #CFD8F0",
"P. c #D4DCF1",
"I. c #DCDFF2",
"U. c #E3CDE2",
"Y. c #E3C4E1",
"T. c #E6D2E4",
"R. c #EADCEA",
"E. c #E9D8EA",
"W. c #F8DDED",
"Q. c #F5CAE2",
"!. c #DCE2F3",
"~. c #E4E4E5",
"^. c #EFE2EE",
"/. c #ECECEC",
"(. c #E2E6F4",
"). c #E5EBF7",
"_. c #E8ECF7",
"`. c #EAEEF8",
"'. c #F4ECF3",
"]. c #F8E8F3",
"[. c #EDF1F9",
"{. c #F6F3F6",
"}. c #F8F2F7",
"|. c #F3F5FB",
" X c #FAF5F9",
".X c #F7F8FC",
"XX c #FFFFFF",
"oX c None",
/* pixels */
"oXoXoXoXoXoXoXoXoXoXoXoXoXoXoXoXoXoXoXoXoXoXoXoXoXoXoXoXoXoXoXoXoXoXoXoXoXoXoXoXoXoXoXoXoXoXoXoXoXoXoXoXoXoXoXoXoXoXoXoXoXoXoXoX",
"oXoXoXoXoXoXoXoXoXoXoXoXoXoXoXoXoXoXoXoXoXoXoXoXoXoXoXoXoXoXoXoXoXoXoXoXoXoXoXoXoXoXoXoXoXoXoXoXoXoXoXoXoXoXoXoXoXoXoXoXoXoXoXoX",
"oXoXoXoXoXoXoXoXoXoXoXoXoXoXoXoXoXoXoXoXoXoXoXoXoXoXoXoXoXoXoXoXoXoXoXoXoXoXoXoXoXoXoXoXoXoXoXoXoXoXoXoXoXoXoXoXoXoXoXoXoXoXoXoX",
"oXoXoXoXoXoXoXoXoXoXoXoXoXoXoXoXoXoXoXoXoXoX5 4 4 5 5 oXoXoXoXoXoXoXoXoXoXoXoXoXoXoXoXoXoXoXoXoXoXoXoXoXoXoXoXoXoXoXoXoXoXoXoXoX",
"oXoXoXoXoXoXoXoXoXoXoXoXoXoXoXoXoXoXoXoXoXd J I P P J oXoXoXoXoXoXoXoXoXoXoXoXoXoXoXoXoXoXoXoXoXoXoXoXoXoXoXoXoXoXoXoXoXoXoXoXoX",
"oXoXoXoXoXoXoXoXoXoXoXoXoXoX: : : : : : 5 U 3.w.w.w.2.H 5 < : oXoXoXoXoXoXoXoXoXoXoXoXoXoXoXoXoXoXoXoXoXoXoXoXoXoXoXoXoXoXoXoXoX",
"oXoXoXoXoXoXoXoXoXoXoXoXoXd L I I I P I I <.F.!.!.(.C.%.I P L oXoXoXoXoXoXoXoXoXoXoXoXoXoXoXoXoXoXoXoXoXoXoXoXoXoXoXoXoXoXoXoXoX",
"oXoXoXoXoXoXoXoXoXoX6 6 6 U <.4.3.4.3.4.4.z.`.XXXX.X_.k.4.4.%.L 6 6 oXoXoXoXoXoXoXoXoXoXoXoXoXoXoXoXoXoXoXoXoXoXoXoXoXoXoXoXoXoX",
"oXoXoXoXoXoXoXoXoXoXM H J %.C.!.!.!.!.!.!._..XXXXXXX.X_.!.!.z.| H H M oXoXoXoXoXoXoXoXoXoXoXoXoXoXoXoXoXoXoXoXoXoXoXoXoXoXoXoXoX",
"oXoXoXoXoXoXoXoX2 P %.3.4.z._..X.X.X.X.X.X.XXXXXXXXXXX.X.X.X).k.4.3.%.H 2 oXoXoXoXoXoXoXoXoXoXoXoXoXoXoXoXoXoXoXoXoXoXoXoXoXoXoX",
"oXoXoXoXoXoXoXf G | C.!.!.)..XXXXXXXXXXXXXXXXXXXXXXXXXXXXXXX.X).I.!.z.{ G d oXoXoXoXoXoXoXoXoXoXoXoXoXoXoXoXoXoXoXoXoXoXoXoXoXoX",
"oXoXoXoXoXoXf | 3.x._..X.XXXXXXXXXXXXXXXXXXXXXXXXXXXXXXXXXXXXX.X.X.X(.k.3.[ d oXoXoXoXoXoXoXoXoXoXoXoXoXoXoXoXoXoXoXoXoXoXoXoXoX",
"oXoXoXoXoXoX) r.G.(..XXXXXXXXXXXXXXXXXXXXXXXXXXXXXXXXXXXXXXXXXXXXXXX.X(.J.w.Y oXoXoXoXoXoXoXoXoXoXoXoXoXoXoXoXoXoXoXoXoXoXoXoXoX",
"oXoXoXoXoXP 3.!..XXXXXXXXXXXXXXXXXXXXXXXXXXXXXXXXXXXXXXXXXXXXXXXXXXXXX.X.XL.<.J oXoXoXoXoXoXoXoXoXoXoXoXoXoXoXoXoXoXoXoXoXoXoXoX",
"oXoXoXoXg | C.[.XXXXXXXXXXXXXXXXXXXXXXXXXXXXXXXXXXXXXXXXXXXXXXXXXXXXXXXXXX`.x.` oXoXoXoXoXoXoXoXoXoXoXoXoXoXoXoXoXoXoXoXoXoXoXoX",
"oXoXoXoX( e.(.XXXXXXXXXXXXXXXXXXXXXXXXXXXXXXXXXXXXXXXXXXXXXXXXXXXXXXXXXXXX.X!.w.I oXoXoXoXoXoXoXoXoXoXoXoXoXoXoXoXoXoXoXoXoXoXoX",
"oXoXoX7  .P..XXXXXXXXXXXXXXXXXXXXXXXXXXXXXXXXXXXXXXXXXXXXXXXXXXXXXXXXXXXXXXX|.L. .g oXoXoXoXu i oXoXoXoXoXoXoXoXoXoXoXoXoXoXoXoX",
"oXoX; 5 *._.XXXXXXXXXXXXXXXXXXXXXXXXXXXXXXXXXXXXXXXXXXXXXXXXXXXXXXXXXXXXXXXXXX[.k.` oXoXoXJ }  .P oXoXoXoXoXoXoXoXoXoXoXoXoXoXoX",
"oXoXu g 4.|.XXXXXXXXXXXXXXXXXXXXXXXXXXXXXXXXXXXXXXXXXXXXXXXXXXXXXXXXXXXXXXXXXXXX!.4.P oX: U t.0.#.f oXoXoXoXoXoXoXoXoXoXoXoXoXoX",
"oXH `  .z..XXXXXXXXXXXXXXXXXXXXXXXXXXXXXXXXXXXXXXXXXXXXXXXXXXXXXXXXXXXXXXXXXXXXX.XD.%.d : ) Z.Y.8._ q oXoXoXoXoXoXoXoXoXoXoXoXoX",
"oXU w.D.(..XXXXXXXXXXXXXXXXXXXXXXXXXXXXXXXXXXXXXXXXXXXXXXXXXXXXXXXXXXXXXXXXXXXXXXX).r.K 4 ) A.V.g.2.J s s u s u oXoXoXoXoXoXoXoX",
": Y D.[..XXXXXXXXXXXXXXXXXXXXXXXXXXXXXXXXXXXXXXXXXXXXXXXXXXXXXXXXXXXXXXXXXXXXXXXXX.XH.Q 8 ( A.Q.Q.l.%._ _ _ _ _ J oXoXoXoXoXoXoX",
": ( J..XXXXXXXXXXXXXXXXXXXXXXXXXXXXXXXXXXXXXXXXXXXXXXXXXXXXXXXXXXXXXXXXXXXXXXXXXXXXXR.-.c ) D.W.}._.F.C.C.C.C.k.{ d oXoXoXoXoXoX",
": ) P.XXXXXXXXXXXXXXXXXXXXXXXXXXXXXXXXXXXXXXXXXXXXXXXXXXXXXXXXXXXXXXXXXXXXXXXXXXXXXX[.h.! W 7.I. X.X|.`.`.`.`.).r.) oXoXoXoXoXoX",
": ( P.XXXXXXXXXXXXXXXXXXXXXXXXXXXXXXXXXXXXXXXXXXXXXXXXXXXXXXXXXXXXXXXXXXXXXXXXXXXXXX XR.9.#.&.G.XXXXXXXXXX{./.{.P.*.d oXoXoXoXoX",
"> ) P.XXXXXXXXXXXXXXXXXXXXXXXXXXXXXXXXXXXXXXXXXXXXXXXXXXXXXXXXXXXXXXXXXXXXXXXXXXXXXXXX{.K.8.7.P. XXXXXXXXXm.v.~.`.3.d oXoXoXoXoX",
": Y D..XXXXXXXXXXXXXXXXXXXXXXXXXXXXXXXXXXXXXXXXXXXXXXXXXXXXXXXXXXXXXXXXXXXXXXXXXXXXXXXXX'.H.D._.XXXXXXXX.X@.X.c..Xr.J oXoXoXoXoX",
"oXP r.).XXXXXXXXXXXXXXXXXXXXXXXXXXXXXXXXXXXXXXXXXXXXXXXXXXXXXXXXXXXXXXXXXXXXXXXXXXXXXXXX X|.{..XXXXXXXXX X+.$ @..Xz._ s oXoXoXoX",
"oXf } L.XXXXXXXXXXXXXXXXXXXXXXXXXXXXXXXXXXXXXXXXXXXXXXXXXXXXXXXXXXXXXXXXXXXXXX.X.XXXXXXX XXX.XXXXXXXXXXX.X+.$ @. X(.4.g > oXoXoX",
"oXoXP z..XXXXXXXXXXXXXXXXXXXXXXXXXXXXXXXXXXXXXXXXXXXXXXXXXXXXXXXXXXXXXXXXXXX[.G.!.XXXXXX{.'.XXXXXXXXXXXX X@...v..X.Xj.h + + oXoX",
"oXoXG k.XXXXXXXXXXXXXXXXXXXXXXXXXXXXXXXXXXXXXXXXXXXXXXXXXXXXXXXXXXXXXXXXXXXX!.5.k.[.XXXX^.R.}.XXXXXXXXXXXXm.c.~.XXXXN.# . O & oX",
"oXoXG k..XXXXXXXXXXXXXXXXXXXXXXXXXXXXXXXXXXXXXXXXXXXXXXXXXXXXXXXXXXXXXXXXXXX!.5.3.F.{. X^.T.^. XXXXXXXXXXX{./.{.XX.Xv.@   o * oX",
"oXoXG k..XXXXXXXXXXXXXXXXXXXXXXXXXXXXXXXXXXXXXXXXXXXXXXXXXXXXXXXXXXXXXXXXXXX`.k.%.w.(. X'.T.T.]. XXXXXXXXXXXXXXXXX Xc.@   o & oX",
"oXoXG k.XXXXXXXXXXXXXXXXXXXXXXXXXXXXXXXXXXXXXXXXXXXXXXXXXXXXXXXXXXXXXXXXXXXX.XP.|  .I.XX XT.d.B.}.XXXXXXXXXXXXXXXXXXM.% X O = oX",
"oXoXG k..XXXXXXXXXXXXXXXXXXXXX.XXXXXXXXXXXXXXXXXXXXXXXXXXX.XXXXXXXXXXXXXXXXXXX).| { G..X.XU.i.i.T. X XXXXXXXXXXXXXXX~.+.# + - oX",
"oXoXM k.XXXXXXXXXXXXXXXXXXXX.X!.`..XXXXXXXXXXXXXXXXXXXXX}.(.I.`.XXXXXXXXXXXXXX_.| Y w.D.D.8.! ! s.R.].'.'. X XXXXX XE.0.m - ; oX",
"oXoXG k.XXXXXXXXXXXXXXXXXXXX!.w.z..XXXXXXXXXXXXXXXXXXXXX^.0.3.P.XXXXXXXXXXXXXX_.} f U ` _ U v z $.i.d.b.B.E. XXXXXW.a.#.N oXoXoX",
"oXoXG k..XXXXXXXXXXXXXXXXXXXJ.| w.[.XXXXXXXXXXXXXXXX.X'.b.$.[ C.XXXXXXXXXXXXXX_.} t u f f p 8 9 x ! -.-.-.8.Z.C.D.9.^ E oXoXoXoX",
"oXoXM k..XXXXXXXXXXXXXXXXXXXD.) 2.[.XXXXXXXXXXXXXX X}.T.i.D B k..XXXXXXXXXXXXX).{ 6 : oXoXoXoX< 0 k C Z Z F | | | Q n j oXoXoXoX",
"oXoXG k.XXXXXXXXXXXXXXXXXXXXF.) <.[.XXXXXXXXXXXX X}.R.d.O.V B k.XXXXXXXXXXXXXX_.| 6 oXoXoXoXoXoX3 3 8 w w p f f f a 9 oXoXoXoXoX",
"oXoXG k.XXXXXXXXXXXXXXXXXXXXD.) 2.[.XXXX.XXXXX X^.T.d.u.^ b N k..XXXXXXXXXXXXX_.} 7 oXoXoXoXoXoXoXoX< , , 2 2 2 2 2 oXoXoXoXoXoX",
"oXoXG k..XXXXXXXXXXXXXXXXXXXD.R &.(.}.}.}.}.}.'.B.p.:.^ ~ k N k..XXXXXXXXXXXXX_.} 7 oXoXoXoXoXoXoXoXoXoXoXoXoXoXoXoXoXoXoXoXoXoX",
"oXoXG k.XXXXXXXXXXXXXXXXXXXXD.Y #.b.T.U.T.T.U.U.a.o.A b k 3 N k.XXXXXXXXXXXXXX_.} 7 oXoXoXoXoXoXoXoXoXoXoXoXoXoXoXoXoXoXoXoXoXoX",
"oXoXG k..XXXXXXXXXXXXXXXXX[.k.P E ;.6.6.6.6.6.:.o.D j 8 8 1 c k..XXXXXXXXXXXXX_.} 6 oXoXoXoXoXoXoXoXoXoXoXoXoXoXoXoXoXoXoXoXoXoX",
"oXoXG k..XXXXXXXXXXXXXXX.X!.,.N N A F F F F F F C z 6 : 5 5 g k..XXXXXXXXXXXXX_.} q oXoXoXoXoXoXoXoXoXoXoXoXoXoXoXoXoXoXoXoXoXoX",
"oXoXM w.[.XXXXXXXXXXXXXX.XD.{ g f a e e e e a e 0 8 , > t i H q.`.XXXXXXXXXXXX[.<.f oXoXoXoXoXoXoXoXoXoXoXoXoXoXoXoXoXoXoXoXoXoX",
"oXoXf %.L..XXXXXXXXXXXXXXXF.| g g d 6 < < < < 1 < oXoX4 d L ( 1.G..XXXXXXXXXXX|.r.R oXoXoXoXoXoXoXoXoXoXoXoXoXoXoXoXoXoXoXoXoXoX",
"oXoXoXL r.|.XXXXXXXXXXXXXX).w.L L K q : oXoXoXoXoXoXoX5 H } { ( r.|.XXXXXXXXXX.X!.*.d oXoXoXoXoXoXoXoXoXoXoXoXoXoXoXoXoXoXoXoXoX",
"oXoXoXu 3.|.XXXXXXXXXXXXXX.Xz.I I ' L t oXoXoXoXoXoXoX5 L  . .P 3.|.XXXXXXXXXXXX|.3.d oXoXoXoXoXoXoXoXoXoXoXoXoXoXoXoXoXoXoXoXoX",
"oXoXoXq <.[.XXXXXXXXXXXXXXXXD.U I  .' i oXoXoXoXoXoXoX5 L ,. .P *.)..XXXXXXXXXXX.Xr.H oXoXoXoXoXoXoXoXoXoXoXoXoXoXoXoXoXoXoXoXoX",
"oXoXoXq <.[.XXXXXXXXXXXXXXXXD.U P ,. .d oXoXoXoXoXoXoX: H }  .' | x.[.XXXXXXXXXXXXC.{ f oXoXoXoXoXoXoXoXoXoXoXoXoXoXoXoXoXoXoXoX",
"oXoXoXq <.`.XXXXXXXXXXXXXXXXD.T P ,. .G 5 oXoXoXoXoXoX: i ' 1.| ) 3.(.XXXXXXXXXXXX(.r.Y oXoXoXoXoXoXoXoXoXoXoXoXoXoXoXoXoXoXoXoX",
"oXoXoXq <.`.XXXXXXXXXXXXXXXXD.I L ,. .L t oXoXoXoXoXoX: t I  .1.P } P.XXXXXXXXXXXX.XG.%.H oXoXoXoXoXoXoXoXoXoXoXoXoXoXoXoXoXoXoX",
"oXoXoXq >._.XXXXXXXXXXXXXXXXF.Y P  . .' d oXoXoXoXoXoXoX5 H }  .H ` G..XXXXXXXXXXXXX`.z.` oXoXoXoXoXoXoXoXoXoXoXoXoXoXoXoXoXoXoX",
"oXoXoX7 { D.|.XXXXXXXXXXXXXX!.%.Y ( ( P d oXoXoXoXoXoXoXoXi I ( g I r.`.XXXXXXXXXXXX.X(.4.U oXoXoXoXoXoXoXoXoXoXoXoXoXoXoXoXoXoX",
"oXoXoXoXJ 4.(.XXXXXXXXXXXXXX[.k.` G i i q oXoXoXoXoXoXoXoXt i i t g | F..XXXXXXXXXXXXX.XF.%.d oXoXoXoXoXoXoXoXoXoXoXoXoXoXoXoXoX",
"oXoXoXoXq | I.XXXXXXXXXXXXXX.X!.4.J q 5 oXoXoXoXoXoXoXoXoXoX5 6 oXoXI 3.!.XXXXXXXXXXXXXX`.4.f oXoXoXoXoXoXoXoXoXoXoXoXoXoXoXoXoX",
"oXoXoXoX: ) F..XXXXXXXXXXXXXXX.Xz.) q > oXoXoXoXoXoXoXoXoXoXoXoXoXoXoX` k.).[.`.`.[.[.[.).4.d oXoXoXoXoXoXoXoXoXoXoXoXoXoXoXoXoX",
"oXoXoXoXoXU k.`.XXXXXXXXXXXXXX.XF.| u oXoXoXoXoXoXoXoXoXoXoXoXoXoXoXoXg ,.k.C.z.z.z.z.z.x.*.s oXoXoXoXoXoXoXoXoXoXoXoXoXoXoXoXoX",
"oXoXoXoXoXH %.G..X.X.X.X.X.X.X`.r.Y oXoXoXoXoXoXoXoXoXoXoXoXoXoXoXoXoXoXP _ _ _ ` ` ` ` _ I oXoXoXoXoXoXoXoXoXoXoXoXoXoXoXoXoXoX",
"oXoXoXoXoXoXU w.D.D.D.D.C.D.D.z. .g oXoXoXoXoXoXoXoXoXoXoXoXoXoXoXoXoXoXoXu u u u u u u u u oXoXoXoXoXoXoXoXoXoXoXoXoXoXoXoXoXoX",
"oXoXoXoXoXoXoXY ) _ _ ` _ _ ` ) L oXoXoXoXoXoXoXoXoXoXoXoXoXoXoXoXoXoXoXoXoXoXoXoXoXoXoXoXoXoXoXoXoXoXoXoXoXoXoXoXoXoXoXoXoXoXoX",
"oXoXoXoXoXoXoXd f f f d d d d d oXoXoXoXoXoXoXoXoXoXoXoXoXoXoXoXoXoXoXoXoXoXoXoXoXoXoXoXoXoXoXoXoXoXoXoXoXoXoXoXoXoXoXoXoXoXoXoX",
"oXoXoXoXoXoXoXoX: : : 4 : 2 < oXoXoXoXoXoXoXoXoXoXoXoXoXoXoXoXoXoXoXoXoXoXoXoXoXoXoXoXoXoXoXoXoXoXoXoXoXoXoXoXoXoXoXoXoXoXoXoXoX"
};
