/* XPM */
static char *result[] = {
/* columns rows colors chars-per-pixel */
"64 64 121 2 ",
"   c black",
".  c #010715",
"X  c #0B1B41",
"o  c #00206E",
"O  c #002171",
"+  c gray32",
"@  c #525458",
"#  c #6A6A6A",
"$  c #002684",
"%  c #012D96",
"&  c #0029A6",
"*  c #002DA8",
"=  c #0133AA",
"-  c #0739AD",
";  c #0D3DAF",
":  c #133BAB",
">  c #103FB0",
",  c #2F3CA6",
"<  c #243EAA",
"1  c #363FA6",
"2  c #433EA9",
"3  c #1A41AE",
"4  c #1241B0",
"5  c #1B47B3",
"6  c #1F4BB4",
"7  c #2A44AC",
"8  c #3942A7",
"9  c #3645AA",
"0  c #3D49AC",
"q  c #204BB5",
"w  c #2656B8",
"e  c #2A54B8",
"r  c #2F5CBB",
"t  c #325BBA",
"y  c #3761BD",
"u  c #3A60BD",
"i  c #414EAE",
"p  c #4F52AE",
"a  c #4557B3",
"s  c #5456B4",
"d  c #4E60B8",
"f  c #5968BB",
"g  c #456CC2",
"h  c #4A6DC3",
"j  c #526DC0",
"k  c #5576C6",
"l  c #5379C7",
"z  c #5979C7",
"x  c #577AC8",
"c  c #597AC8",
"v  c #925AA3",
"b  c #9967AA",
"n  c #9C69AC",
"m  c #AF6DAA",
"M  c #A166B4",
"N  c #A67AB5",
"B  c #B57CB2",
"V  c #6382CB",
"C  c #6789CE",
"Z  c #6C8BCE",
"A  c #6E8DD0",
"S  c #7691D2",
"D  c #7896D3",
"F  c #7C99D4",
"G  c #929292",
"H  c #A883BA",
"J  c #BD88B9",
"K  c gray64",
"L  c #A5A7AC",
"P  c #B496C6",
"I  c #B893C2",
"U  c #B59AC8",
"Y  c #B89BC8",
"T  c #82A0D7",
"R  c #8CA5D9",
"E  c #94AADC",
"W  c #99ACDD",
"Q  c #9AB2DF",
"!  c #A4B4DA",
"~  c #ACB2DD",
"^  c #A3B5E0",
"/  c #A4B8E2",
"(  c #AFBFE4",
")  c #C495C1",
"_  c #E99FCB",
"`  c #CBA1C7",
"'  c #CBA3C9",
"]  c #CEA8CC",
"[  c #D5B4D2",
"{  c #D8B9D6",
"}  c #F3A7CE",
"|  c #F5A9CF",
" . c #B2C1E5",
".. c #BCC1E3",
"X. c #C6C7C6",
"o. c #DDC1DA",
"O. c #E0C9DF",
"+. c #C2CEEB",
"@. c #C6D1EC",
"#. c #C8D3ED",
"$. c #DBDCEF",
"%. c #E7D3E5",
"&. c #E9D5E6",
"*. c #ECDDEB",
"=. c #FFDFED",
"-. c #DFE5F4",
";. c #EEE1ED",
":. c gray92",
">. c #FFE0ED",
",. c #E0E6F5",
"<. c #E3E9F6",
"1. c #E8EAF6",
"2. c #EBEFF8",
"3. c #F3EAF3",
"4. c #EFF2FA",
"5. c #F8F2F7",
"6. c #F4F6FB",
"7. c #F9F4F8",
"8. c #F6F8FC",
"9. c #FFFFFF",
"0. c None",
/* pixels */
"0.0.0.0.0.0.0.0.0.0.0.0.0.0.0.0.0.0.0.0.0.0.0.0.0.0.0.0.0.0.0.0.0.0.0.0.0.0.0.0.0.0.0.0.0.0.0.0.0.0.0.0.0.0.0.0.0.0.0.0.0.0.0.0.",
"0.0.0.0.0.0.0.0.0.0.0.0.0.0.0.0.0.0.0.0.0.0.0.0.0.0.0.0.0.0.0.0.0.0.0.0.0.0.0.0.0.0.0.0.0.0.0.0.0.0.0.0.0.0.0.0.0.0.0.0.0.0.0.0.",
"0.0.0.0.0.0.0.0.0.0.0.0.0.0.0.0.0.0.0.0.0.0.0.0.0.0.0.0.0.0.0.0.0.0.0.0.0.0.0.0.0.0.0.0.0.0.0.0.0.0.0.0.0.0.0.0.0.0.0.0.0.0.0.0.",
"0.0.0.0.0.0.0.0.0.0.0.0.0.0.0.0.0.0.0.0.0.0.0.0.0.0.0.0.0.0.0.0.0.0.0.0.0.0.0.0.0.0.0.0.0.0.0.0.0.0.0.0.0.0.0.0.0.0.0.0.0.0.0.0.",
"0.0.0.0.0.0.0.0.0.0.0.0.0.0.0.0.0.0.0.0.0.0.0.0.0.0.0.0.0.0.0.0.0.0.0.0.0.0.0.0.0.0.0.0.0.0.0.0.0.0.0.0.0.0.0.0.0.0.0.0.0.0.0.0.",
"0.0.0.0.0.0.0.0.0.0.0.0.0.0.0.0.0.0.0.0.0.0.0.0.0.0.0.0.0.0.0.0.0.0.0.0.0.0.0.0.0.0.0.0.0.0.0.0.0.0.0.0.0.0.0.0.0.0.0.0.0.0.0.0.",
"0.0.0.0.0.0.0.0.0.0.0.0.0.0.0.0.0.0.0.0.0.0.0.0.0.0.0.0.0.0.0.0.0.0.0.0.0.0.0.0.0.0.0.0.0.0.0.0.0.0.0.0.0.0.0.0.0.0.0.0.0.0.0.0.",
"0.0.0.0.0.0.0.0.0.0.0.0.0.0.0.0.0.0.0.0.0.0.0.0.0.0.0.0.0.0.0.0.0.0.0.0.0.0.0.0.0.0.0.0.0.0.0.0.0.0.0.0.0.0.0.0.0.0.0.0.0.0.0.0.",
"0.0.0.0.0.0.0.0.0.0.0.0.0.0.0.0.0.0.0.0.0.0.0.0.0.0.0.0.0.0.0.0.0.0.0.0.0.0.0.0.0.0.0.0.0.0.0.0.0.0.0.0.0.0.0.0.0.0.0.0.0.0.0.0.",
"0.0.0.0.0.0.0.0.0.0.0.0.0.0.0.0.0.0.0.0.0.0.0.0.0.0.0.0.0.0.0.0.0.0.0.0.0.0.0.0.0.0.0.0.0.0.0.0.0.0.0.0.0.0.0.0.0.0.0.0.0.0.0.0.",
"0.0.0.0.0.0.0.0.0.0.0.0.0.0.0.0.0.0.0.0.0.0.0.0.0.0.0.0.0.0.0.0.0.0.0.0.0.0.0.0.0.0.0.0.0.0.0.0.0.0.0.0.0.0.0.0.0.0.0.0.0.0.0.0.",
"0.0.0.0.0.0.0.0.0.0.0.0.0.0.0.0.0.0.0.0.0.0.0.0.0.0.0.0.0.0.0.0.0.0.0.0.0.0.0.0.0.0.0.0.0.0.0.0.0.0.0.0.0.0.0.0.0.0.0.0.0.0.0.0.",
"0.0.0.0.0.0.0.0.0.0.0.0.0.0.0.0.0.0.0.0.0.0.0.0.0.0.0.0.0.0.0.0.0.0.0.0.0.0.0.0.0.0.0.0.0.0.0.0.0.0.0.0.0.0.0.0.0.0.0.0.0.0.0.0.",
"0.0.0.0.0.0.0.0.0.0.0.0.0.0.0.0.0.0.0.0.0.0.0.0.0.0.0.0.0.0.0.0.0.0.0.0.0.0.0.0.0.0.0.0.0.0.0.0.0.0.0.0.0.0.0.0.0.0.0.0.0.0.0.0.",
"0.0.0.0.0.0.0.0.0.0.0.0.0.0.0.0.0.0.0.0.0.0.0.0.0.0.0.0.0.0.0.0.0.0.0.0.0.0.0.0.0.0.0.0.0.0.0.0.0.0.0.0.0.0.0.0.0.0.0.0.0.0.0.0.",
"0.0.0.0.0.0.0.0.0.0.0.0.0.0.0.0.0.0.0.0.0.6 6 6 6 6 6 0.0.0.0.0.0.0.0.0.0.0.0.0.0.0.0.0.0.0.0.0.0.0.0.0.0.0.0.0.0.0.0.0.0.0.0.0.",
"0.0.0.0.0.0.0.0.0.0.0.0.0.= = = = = = = = W <.,.,.<.W = = = = 0.0.0.0.0.0.0.0.0.0.0.0.0.0.0.0.0.0.0.0.0.0.0.0.0.0.0.0.0.0.0.0.0.",
"0.0.0.0.0.0.0.0.0.0.* * * S ^ ^ ! ^ ^ ^ ^ ,.9.9.9.9.,.^ ^ / S * * * 0.0.0.0.0.0.0.0.0.0.0.0.0.0.0.0.0.0.0.0.0.0.0.0.0.0.0.0.0.0.",
"0.0.0.0.0.0.0.0.0.h c c c @.9.9.9.9.9.9.9.9.9.9.9.9.9.9.9.9.@.c c c h 0.0.0.0.0.0.0.0.0.0.0.0.0.0.0.0.0.0.0.0.0.0.0.0.0.0.0.0.0.",
"0.0.0.0.0.0.0.6 q ( 9.9.9.9.9.9.9.9.9.9.9.9.9.9.9.9.9.9.9.9.9.9.9.9.( q 6 0.0.0.0.0.0.0.0.0.0.0.0.0.0.0.0.0.0.0.0.0.0.0.0.0.0.0.",
"0.0.0.0.0.* k ,.,.6.9.9.9.9.9.9.9.9.9.9.9.9.9.9.9.9.9.9.9.9.9.9.9.9.6.,.,.k * 0.0.0.0.0.0.0.0.0.0.0.0.0.0.0.0.0.0.0.0.0.0.0.0.0.",
"0.0.0.0.* S @.9.9.9.9.9.9.9.9.9.9.9.9.9.9.9.9.9.9.9.9.9.9.9.9.9.9.9.9.9.9.@.S * 0.0.0.0.0.0.0.0.0.0.0.0.0.0.0.0.0.0.0.0.0.0.0.0.",
"0.0.0.0.k @.9.9.9.9.9.9.9.9.9.9.9.9.9.9.9.9.9.9.9.9.9.9.9.9.9.9.9.9.9.9.9.9.@.k 0.0.0.0.0.0.0.0.0.0.0.0.0.0.0.0.0.0.0.0.0.0.0.0.",
"0.0.0.6 ,.9.9.9.9.9.9.9.9.9.9.9.9.9.9.9.9.9.9.9.9.9.9.9.9.9.9.9.9.9.9.9.9.9.9.<.u 0.0.0.0.6 6 6 0.0.0.0.0.0.0.0.0.0.0.0.0.0.0.0.",
"0.= = 6 ,.9.9.9.9.9.9.9.9.9.9.9.9.9.9.9.9.9.9.9.9.9.9.9.9.9.9.9.9.9.9.9.9.9.9.9.<.k * 0.= E <.@.6 0.0.0.0.0.0.0.0.0.0.0.0.0.0.0.",
"= D ^ ( 6.9.9.9.9.9.9.9.9.9.9.9.9.9.9.9.9.9.9.9.9.9.9.9.9.9.9.9.9.9.9.9.9.9.9.9.9.@.S = = / =._ ~ h & * * * * & 0.0.0.0.0.0.0.0.",
"= / 9.9.9.9.9.9.9.9.9.9.9.9.9.9.9.9.9.9.9.9.9.9.9.9.9.9.9.9.9.9.9.9.9.9.9.9.9.9.9.9.( 9 - / =.} 7.W k k c c z k 0.0.0.0.0.0.0.0.",
"= ! 9.9.9.9.9.9.9.9.9.9.9.9.9.9.9.9.9.9.9.9.9.9.9.9.9.9.9.9.9.9.9.9.9.9.9.9.9.9.9.9.&.N 7 W 6.9.9.9.9.9.9.9.9.<.u 0.0.0.0.0.0.0.",
"= ^ 9.9.9.9.9.9.9.9.9.9.9.9.9.9.9.9.9.9.9.9.9.9.9.9.9.9.9.9.9.9.9.9.9.9.9.9.9.9.9.9.9.*.Y d Z 9.9.9.9.9.9.9.9.8.<.k * 0.0.0.0.0.",
"= ^ 9.9.9.9.9.9.9.9.9.9.9.9.9.9.9.9.9.9.9.9.9.9.9.9.9.9.9.9.9.9.9.9.9.9.9.9.9.9.9.9.9.9.;...+.9.9.9.9.9.9.G G 9.9.k & 0.0.0.0.0.",
"= D @.9.9.9.9.9.9.9.9.9.9.9.9.9.9.9.9.9.9.9.9.9.9.9.9.9.9.9.9.9.9.9.9.9.9.9.9.9.9.9.9.9.9.9.9.9.9.9.9.9.9.+ + 9.9.E h 0.0.0.0.0.",
"0.* c 9.9.9.9.9.9.9.9.9.9.9.9.9.9.9.9.9.9.9.9.9.9.9.9.9.9.9.9.9.9.9.9.9.9.9.6.<.8.9.9.9.5.9.9.9.9.9.9.9.9.# # 9.9.9.! % % 0.0.0.",
"0.* k 9.9.9.9.9.9.9.9.9.9.9.9.9.9.9.9.9.9.9.9.9.9.9.9.9.9.9.9.9.9.9.9.9.9.9.( u <.9.9.5.[ ;.9.9.9.9.9.9.9.:.:.9.9.9.L . . O = 0.",
"0.* c 9.9.9.9.9.9.9.9.9.9.9.9.9.9.9.9.9.9.9.9.9.9.9.9.9.9.9.9.9.9.9.9.9.9.9.,.W V +.9.9.;.o.&.9.9.9.9.9.9.9.9.9.9.9.K     o = 0.",
"0.* c 9.9.9.9.9.9.9.9.9.9.9.9.9.9.9.9.9.9.9.9.9.9.9.9.9.9.9.9.9.9.9.9.9.9.9.9.<.6 ! 9.9.9.[ ' &.9.9.9.9.9.9.9.9.9.9.X.@ X $ = 0.",
"0.* c 9.9.9.9.9.9.9.9.9.9.9.8.1.9.9.9.9.9.9.9.9.9.9.9.9.7.<.1.9.9.9.9.9.9.9.9.,.q R <.,.,.P b N *.5.7.5.5.9.9.9.9.7.3.#.6 = = 0.",
"0.* c 9.9.9.9.9.9.9.9.9.9.9.( t <.9.9.9.9.9.9.9.9.9.9.7.[ f Z 9.9.9.9.9.9.9.9.,.6 4 6 q q : : 7 b ) ] ] ] ;.9.9.9.| M 6 0.0.0.0.",
"0.* k 9.9.9.9.9.9.9.9.9.9.9.^ 5 -.9.9.9.9.9.9.9.9.9.3.{ J 0 k 9.9.9.9.9.9.9.9.,.q = 0.0.0.0.0.0.1 i a a a j c c c s 2 0.0.0.0.0.",
"0.* c 9.9.9.9.9.9.9.9.9.9.9.^ q <.9.9.9.9.9.9.9.;.*.o.J m 8 x 9.9.9.9.9.9.9.9.,.q 0.0.0.0.0.0.0.= * = * = * * * * * 0.0.0.0.0.0.",
"0.* k 9.9.9.9.9.9.9.9.9.9.9.^ q $.7.5.5.7.5.5.3.' I H b v , x 9.9.9.9.9.9.9.9.,.q 0.0.0.0.0.0.0.0.0.0.0.0.0.0.0.0.0.0.0.0.0.0.0.",
"0.* c 9.9.9.9.9.9.9.9.9.9.9.^ > U ] ] ] ] ] ] ` B p : : : * c 9.9.9.9.9.9.9.9.,.6 0.0.0.0.0.0.0.0.0.0.0.0.0.0.0.0.0.0.0.0.0.0.0.",
"0.* c 9.9.9.9.9.9.9.9.9.9.E g r a a a a a a a a 0 < = = w ; z 9.9.9.9.9.9.9.9.-.5 0.0.0.0.0.0.0.0.0.0.0.0.0.0.0.0.0.0.0.0.0.0.0.",
"0.0.h ( 6.9.9.9.9.9.9.9.9.E g r y 4 * = * = * * = 0.0.; l g V ( 6.9.9.9.9.9.9.2.A t 0.0.0.0.0.0.0.0.0.0.0.0.0.0.0.0.0.0.0.0.0.0.",
"0.0.0.q ,.9.9.9.9.9.9.9.9.9.! 4 R h 4 0.0.0.0.0.0.0.0.4 D ^ Z 6 ,.9.9.9.9.9.9.9.9.c * 0.0.0.0.0.0.0.0.0.0.0.0.0.0.0.0.0.0.0.0.0.",
"0.0.0.6 ,.9.9.9.9.9.9.9.9.9.^ 4 F W V = 0.0.0.0.0.0.0.4 F / Z 6 ,.9.9.9.9.9.9.9.9.c * 0.0.0.0.0.0.0.0.0.0.0.0.0.0.0.0.0.0.0.0.0.",
"0.0.0.6 ,.9.9.9.9.9.9.9.9.9.^ > D / Z = 0.0.0.0.0.0.0.; l F R Z c @.9.9.9.9.9.9.9.+.S * 0.0.0.0.0.0.0.0.0.0.0.0.0.0.0.0.0.0.0.0.",
"0.0.0.6 <.9.9.9.9.9.9.9.9.9.^ > F Q D r 0.0.0.0.0.0.0.- w C W R 4 ^ 9.9.9.9.9.9.9.9.@.k 0.0.0.0.0.0.0.0.0.0.0.0.0.0.0.0.0.0.0.0.",
"0.0.0.6 @.8.9.9.9.9.9.9.9.9.( w A D D Z 4 0.0.0.0.0.0.0.= l F Z 4 E 6.9.9.9.9.9.9.9.9.<.u 0.0.0.0.0.0.0.0.0.0.0.0.0.0.0.0.0.0.0.",
"0.0.0.0.q ( 9.9.9.9.9.9.9.9.8.#.e 4 4 4 0.0.0.0.0.0.0.0.0.; 4 > 0.4 Z 9.9.9.9.9.9.9.9.9.<.k * 0.0.0.0.0.0.0.0.0.0.0.0.0.0.0.0.0.",
"0.0.0.0.= ^ 9.9.9.9.9.9.9.9.9.8. .u * 0.0.0.0.0.0.0.0.0.0.0.0.0.0.0.t Z 4.9.9.9.9.9.9.9.9.c * 0.0.0.0.0.0.0.0.0.0.0.0.0.0.0.0.0.",
"0.0.0.0.= S @.9.9.9.9.9.9.9.9.8. .h 0.0.0.0.0.0.0.0.0.0.0.0.0.0.0.0.0.5 E ^ ^ ^ ^ ^ ^ ^ ^ h 0.0.0.0.0.0.0.0.0.0.0.0.0.0.0.0.0.0.",
"0.0.0.0.0.* k ,.,.,.,.,.,.-.<.#.q 0.0.0.0.0.0.0.0.0.0.0.0.0.0.0.0.0.0.0.= = = = = = = = = 0.0.0.0.0.0.0.0.0.0.0.0.0.0.0.0.0.0.0.",
"0.0.0.0.0.0.0.q q 6 6 6 6 6 6 6 0.0.0.0.0.0.0.0.0.0.0.0.0.0.0.0.0.0.0.0.0.0.0.0.0.0.0.0.0.0.0.0.0.0.0.0.0.0.0.0.0.0.0.0.0.0.0.0.",
"0.0.0.0.0.0.0.0.0.0.0.0.0.0.0.0.0.0.0.0.0.0.0.0.0.0.0.0.0.0.0.0.0.0.0.0.0.0.0.0.0.0.0.0.0.0.0.0.0.0.0.0.0.0.0.0.0.0.0.0.0.0.0.0.",
"0.0.0.0.0.0.0.0.0.0.0.0.0.0.0.0.0.0.0.0.0.0.0.0.0.0.0.0.0.0.0.0.0.0.0.0.0.0.0.0.0.0.0.0.0.0.0.0.0.0.0.0.0.0.0.0.0.0.0.0.0.0.0.0.",
"0.0.0.0.0.0.0.0.0.0.0.0.0.0.0.0.0.0.0.0.0.0.0.0.0.0.0.0.0.0.0.0.0.0.0.0.0.0.0.0.0.0.0.0.0.0.0.0.0.0.0.0.0.0.0.0.0.0.0.0.0.0.0.0.",
"0.0.0.0.0.0.0.0.0.0.0.0.0.0.0.0.0.0.0.0.0.0.0.0.0.0.0.0.0.0.0.0.0.0.0.0.0.0.0.0.0.0.0.0.0.0.0.0.0.0.0.0.0.0.0.0.0.0.0.0.0.0.0.0.",
"0.0.0.0.0.0.0.0.0.0.0.0.0.0.0.0.0.0.0.0.0.0.0.0.0.0.0.0.0.0.0.0.0.0.0.0.0.0.0.0.0.0.0.0.0.0.0.0.0.0.0.0.0.0.0.0.0.0.0.0.0.0.0.0.",
"0.0.0.0.0.0.0.0.0.0.0.0.0.0.0.0.0.0.0.0.0.0.0.0.0.0.0.0.0.0.0.0.0.0.0.0.0.0.0.0.0.0.0.0.0.0.0.0.0.0.0.0.0.0.0.0.0.0.0.0.0.0.0.0.",
"0.0.0.0.0.0.0.0.0.0.0.0.0.0.0.0.0.0.0.0.0.0.0.0.0.0.0.0.0.0.0.0.0.0.0.0.0.0.0.0.0.0.0.0.0.0.0.0.0.0.0.0.0.0.0.0.0.0.0.0.0.0.0.0.",
"0.0.0.0.0.0.0.0.0.0.0.0.0.0.0.0.0.0.0.0.0.0.0.0.0.0.0.0.0.0.0.0.0.0.0.0.0.0.0.0.0.0.0.0.0.0.0.0.0.0.0.0.0.0.0.0.0.0.0.0.0.0.0.0.",
"0.0.0.0.0.0.0.0.0.0.0.0.0.0.0.0.0.0.0.0.0.0.0.0.0.0.0.0.0.0.0.0.0.0.0.0.0.0.0.0.0.0.0.0.0.0.0.0.0.0.0.0.0.0.0.0.0.0.0.0.0.0.0.0.",
"0.0.0.0.0.0.0.0.0.0.0.0.0.0.0.0.0.0.0.0.0.0.0.0.0.0.0.0.0.0.0.0.0.0.0.0.0.0.0.0.0.0.0.0.0.0.0.0.0.0.0.0.0.0.0.0.0.0.0.0.0.0.0.0.",
"0.0.0.0.0.0.0.0.0.0.0.0.0.0.0.0.0.0.0.0.0.0.0.0.0.0.0.0.0.0.0.0.0.0.0.0.0.0.0.0.0.0.0.0.0.0.0.0.0.0.0.0.0.0.0.0.0.0.0.0.0.0.0.0."
};
