/* XPM */
static char *result[] = {
/* columns rows colors chars-per-pixel */
"64 64 173 2 ",
"   c #040A19",
".  c #111622",
"X  c #00174C",
"o  c #031B56",
"O  c #001F6A",
"+  c #08287A",
"@  c #334368",
"#  c #41454E",
"$  c #565759",
"%  c #40527E",
"&  c #727272",
"*  c #022B8E",
"=  c #002C95",
"-  c #0D359C",
";  c #0C3BAD",
":  c #0634A8",
">  c #153BAC",
",  c #1C3DAB",
"<  c #1D37A8",
"1  c #0F3FB0",
"2  c #103EB0",
"3  c #273FAC",
"4  c #1B42AF",
"5  c #1341B0",
"6  c #1B46B2",
"7  c #1D4AB4",
"8  c #2544AE",
"9  c #3644AA",
"0  c #344AAE",
"q  c #3E46AE",
"w  c #3B5BAA",
"e  c #224DB5",
"r  c #2B4DB4",
"t  c #304BB3",
"y  c #2451B6",
"u  c #2C52B7",
"i  c #2C54B9",
"p  c #2E5ABB",
"a  c #3156B9",
"s  c #345ABB",
"d  c #3A5EBC",
"f  c #3D62BE",
"g  c #3762BD",
"h  c #494CAA",
"j  c #424FAE",
"k  c #5C4FA9",
"l  c #4550AE",
"z  c #4B5AB5",
"x  c #415EB9",
"c  c #655CAF",
"v  c #685AAD",
"b  c #675EB0",
"n  c #735CB4",
"m  c #4A65A8",
"M  c #4166BF",
"N  c #4D66BC",
"B  c #5269BD",
"V  c #6E6BB8",
"C  c #776EB7",
"Z  c #6872BE",
"A  c #7372BC",
"S  c #3E67C0",
"D  c #4166C0",
"F  c #466AC1",
"G  c #496CC2",
"H  c #4D72C4",
"J  c #5476C6",
"K  c #5A74C4",
"L  c #5679C7",
"P  c #5A7AC7",
"I  c #5779C8",
"U  c #5B7CC9",
"Y  c #607ECA",
"T  c #9C69AC",
"R  c #8D76B8",
"E  c #8472B7",
"W  c #9078B9",
"Q  c #5F81CB",
"!  c #6382CB",
"~  c #6986CD",
"^  c #6C89CE",
"/  c #7E83C8",
"(  c #718BCE",
")  c #7382C8",
"_  c #738ED0",
"`  c #7591D1",
"'  c #7A95D3",
"]  c #7D99D5",
"[  c #90929A",
"{  c #A886BC",
"}  c #B683B8",
"|  c #A2A2A2",
" . c #AAAAAA",
".. c gray69",
"X. c #8782C5",
"o. c #9A8DC5",
"O. c #8C92CD",
"+. c #9F91C7",
"@. c #839CD6",
"#. c #899DD5",
"$. c #9799D1",
"%. c #A09DCF",
"&. c #B697CA",
"*. c #A19ED0",
"=. c #8AA1D7",
"-. c #8CA3D9",
";. c #93A6DA",
":. c #93A9DB",
">. c #99ADDD",
",. c #9EB1DF",
"<. c #A5A7C9",
"1. c #BEACD3",
"2. c #A1B3DE",
"3. c #9FB2E0",
"4. c #A2B5E0",
"5. c #A7B9E2",
"6. c #ACBCE3",
"7. c #B1BEE4",
"8. c #BFBFE0",
"9. c #C9A4CB",
"0. c #C7A8CD",
"q. c #D1ADCF",
"w. c #C2ADD3",
"e. c #C2B0D5",
"r. c #D4BCDB",
"t. c #D2B3D3",
"y. c #F0BDDB",
"u. c #B4C3E6",
"i. c #BECBEA",
"p. c #BAC7E8",
"a. c #C5C5C6",
"s. c #CACACA",
"d. c #C0C6D5",
"f. c #DEDDDE",
"g. c #E1C8DE",
"h. c #C1CDEB",
"j. c #CECAE5",
"k. c #DBC4E2",
"l. c #DACAE3",
"z. c #C6D1EC",
"x. c #CAD4ED",
"c. c #CED8EF",
"v. c #D4D4EB",
"b. c #D1DAEF",
"n. c #DAD9ED",
"m. c #D2DBF0",
"M. c #DCDEF0",
"N. c #E2CDE1",
"B. c #E5D3E5",
"V. c #EBDEEB",
"C. c #E8D4E6",
"Z. c #F7D4E7",
"A. c #DBE2F3",
"S. c #EDE0ED",
"D. c #ECECEB",
"F. c #F2E3EF",
"G. c #E1E6F5",
"H. c #EBE5F2",
"J. c #E5EAF6",
"K. c #EEEDF6",
"L. c #E7ECF8",
"P. c #EAEEF8",
"I. c #F1E6F0",
"U. c #F5EFF5",
"Y. c #FEEEF5",
"T. c #EEF2F9",
"R. c #F5F1F5",
"E. c #F2F5FB",
"W. c #FAF6FA",
"Q. c #F7F8FC",
"!. c #FFFFFF",
"~. c #F8F1F7",
"^. c None",
/* pixels */
"^.^.^.^.^.^.^.^.^.^.^.^.^.^.^.^.^.^.^.^.^.^.^.^.^.^.^.^.^.^.^.^.^.^.^.^.^.^.^.^.^.^.^.^.^.^.^.^.^.^.^.^.^.^.^.^.^.^.^.^.^.^.^.^.",
"^.^.^.^.^.^.^.^.^.^.^.^.^.^.^.^.^.^.^.^.^.^.^.^.^.^.^.^.^.^.^.^.^.^.^.^.^.^.^.^.^.^.^.^.^.^.^.^.^.^.^.^.^.^.^.^.^.^.^.^.^.^.^.^.",
"^.^.^.^.^.^.^.^.^.^.^.^.^.^.^.^.^.^.^.^.^.^.^.^.^.^.^.^.^.^.^.^.^.^.^.^.^.^.^.^.^.^.^.^.^.^.^.^.^.^.^.^.^.^.^.^.^.^.^.^.^.^.^.^.",
"^.^.^.^.^.^.^.^.^.^.^.^.^.^.^.^.^.^.^.^.^.^.^.^.^.^.^.^.^.^.^.^.^.^.^.^.^.^.^.^.^.^.^.^.^.^.^.^.^.^.^.^.^.^.^.^.^.^.^.^.^.^.^.^.",
"^.^.^.^.^.^.^.^.^.^.^.^.^.^.^.^.^.^.^.^.^.^.^.^.^.^.^.^.^.^.^.^.^.^.^.^.^.^.^.^.^.^.^.^.^.^.^.^.^.^.^.^.^.^.^.^.^.^.^.^.^.^.^.^.",
"^.^.^.^.^.^.^.^.^.^.^.^.^.^.^.^.^.^.^.^.^.^.^.^.^.^.^.^.^.^.^.^.^.^.^.^.^.^.^.^.^.^.^.^.^.^.^.^.^.^.^.^.^.^.^.^.^.^.^.^.^.^.^.^.",
"^.^.^.^.^.^.^.^.^.^.^.^.^.^.^.^.^.^.^.^.^.^.^.^.^.^.^.^.^.^.^.^.^.^.^.^.^.^.^.^.^.^.^.^.^.^.^.^.^.^.^.^.^.^.^.^.^.^.^.^.^.^.^.^.",
"^.^.^.^.^.^.^.^.^.^.^.^.^.^.^.^.^.^.^.^.^.^.^.^.^.^.^.^.^.^.^.^.^.^.^.^.^.^.^.^.^.^.^.^.^.^.^.^.^.^.^.^.^.^.^.^.^.^.^.^.^.^.^.^.",
"^.^.^.^.^.^.^.^.^.^.^.^.^.^.^.^.^.^.^.^.^.^.^.^.^.^.^.^.^.^.^.^.^.^.^.^.^.^.^.^.^.^.^.^.^.^.^.^.^.^.^.^.^.^.^.^.^.^.^.^.^.^.^.^.",
"^.^.^.^.^.^.^.^.^.^.^.^.^.^.^.^.^.^.^.^.^.^.^.^.^.^.^.^.^.^.^.^.^.^.^.^.^.^.^.^.^.^.^.^.^.^.^.^.^.^.^.^.^.^.^.^.^.^.^.^.^.^.^.^.",
"^.^.^.^.^.^.^.^.^.^.^.^.^.^.^.^.^.^.^.^.^.^.^.^.^.^.^.^.^.^.^.^.^.^.^.^.^.^.^.^.^.^.^.^.^.^.^.^.^.^.^.^.^.^.^.^.^.^.^.^.^.^.^.^.",
"^.^.^.^.^.^.^.^.^.^.^.^.^.^.^.^.^.^.^.^.^.^.^.^.^.^.^.^.^.^.^.^.^.^.^.^.^.^.^.^.^.^.^.^.^.^.^.^.^.^.^.^.^.^.^.^.^.^.^.^.^.^.^.^.",
"^.^.^.^.^.^.^.^.^.^.^.^.^.^.^.^.^.^.^.^.^.^.D F F F M ^.^.^.^.^.^.^.^.^.^.^.^.^.^.^.^.^.^.^.^.^.^.^.^.^.^.^.^.^.^.^.^.^.^.^.^.^.",
"^.^.^.^.^.^.^.^.^.^.^.^.^.^.e e e e e e u ! :.>.4.,.=.H e e ^.^.^.^.^.^.^.^.^.^.^.^.^.^.^.^.^.^.^.^.^.^.^.^.^.^.^.^.^.^.^.^.^.^.",
"^.^.^.^.^.^.^.^.^.^.^.^.^.F ! ~ ~ ~ ~ ~ ^ 5.G.Q.E.E.m.-.~ ~ Y d ^.^.^.^.^.^.^.^.^.^.^.^.^.^.^.^.^.^.^.^.^.^.^.^.^.^.^.^.^.^.^.^.",
"^.^.^.^.^.^.^.^.^.^.d M D @.i.c.c.c.m.c.c.J.Q.!.!.!.Q.A.c.c.u.~ M f d ^.^.^.^.^.^.^.^.^.^.^.^.^.^.^.^.^.^.^.^.^.^.^.^.^.^.^.^.^.",
"^.^.^.^.^.^.^.^.7 ! :.3.4.z.T.Q.!.Q.!.Q.!.!.!.!.!.!.!.!.Q.!.J.u.2.,.=.F 6 ^.^.^.^.^.^.^.^.^.^.^.^.^.^.^.^.^.^.^.^.^.^.^.^.^.^.^.",
"^.^.^.^.^.^.^.U ^ 4.A.T.T.Q.!.!.!.!.!.!.!.!.!.!.!.!.!.!.!.!.!.E.T.T.b.=.^ J ^.^.^.^.^.^.^.^.^.^.^.^.^.^.^.^.^.^.^.^.^.^.^.^.^.^.",
"^.^.^.^.^.^.~ 7.x.G.Q.!.!.!.!.!.!.!.!.!.!.!.!.!.!.!.!.!.!.!.!.!.!.!.E.A.x.>.L ^.^.^.^.^.^.^.^.^.^.^.^.^.^.^.^.^.^.^.^.^.^.^.^.^.",
"^.^.^.^.^.! 5.J.!.!.!.!.!.!.!.!.!.!.!.!.!.!.!.!.!.!.!.!.!.!.!.!.!.!.!.!.Q.m.:.H ^.^.^.^.^.^.^.^.^.^.^.^.^.^.^.^.^.^.^.^.^.^.^.^.",
"^.^.^.^.I 4.A.Q.!.!.!.!.!.!.!.!.!.!.!.!.!.!.!.!.!.!.!.!.!.!.!.!.!.!.!.!.!.E.c.=.F ^.^.^.^.^.^.^.^.^.^.^.^.^.^.^.^.^.^.^.^.^.^.^.",
"^.^.^.7 @.m.Q.!.!.!.!.!.!.!.!.!.!.!.!.!.!.!.!.!.!.!.!.!.!.!.!.!.!.!.!.!.!.!.E.z.' D ^.^.^.^.d g ^.^.^.^.^.^.^.^.^.^.^.^.^.^.^.^.",
"^.^.5 u ,.E.!.!.!.!.!.!.!.!.!.!.!.!.!.!.!.!.!.!.!.!.!.!.!.!.!.!.!.!.!.!.!.!.!.W.i.` d ^.^.L @.#.P ^.^.^.^.^.^.^.^.^.^.^.^.^.^.^.",
"^.M L ~ p.Q.!.!.!.!.!.!.!.!.!.!.!.!.!.!.!.!.!.!.!.!.!.!.!.!.!.!.!.!.!.!.!.!.!.!.T.u.^ i ; ~ j.k.$.K ^.^.^.^.^.^.^.^.^.^.^.^.^.^.",
"; Y 6.x.L.!.!.!.!.!.!.!.!.!.!.!.!.!.!.!.!.!.!.!.!.!.!.!.!.!.!.!.!.!.!.!.!.!.!.!.!.J.6.B > ^ l.y.r.;.G s s s s s ^.^.^.^.^.^.^.^.",
"; ~ m.Q.!.!.!.!.!.!.!.!.!.!.!.!.!.!.!.!.!.!.!.!.!.!.!.!.!.!.!.!.!.!.!.!.!.!.!.!.!.Q.v.X.0 ( v.Z.F.v.5.;.:.:.:.=.I ^.^.^.^.^.^.^.",
"; ^ A.!.!.!.!.!.!.!.!.!.!.!.!.!.!.!.!.!.!.!.!.!.!.!.!.!.!.!.!.!.!.!.!.!.!.!.!.!.!.!.H.1.A ) 2.H.W.Q.P.J.J.J.J.A.>.I ^.^.^.^.^.^.",
"; ~ A.!.!.!.!.!.!.!.!.!.!.!.!.!.!.!.!.!.!.!.!.!.!.!.!.!.!.!.!.!.!.!.!.!.!.!.!.!.!.!.W.V.e.O.>.M.!.!.!.!.!.D.D.R.m.@.u ^.^.^.^.^.",
"; ~ m.Q.!.!.!.!.!.!.!.!.!.!.!.!.!.!.!.!.!.!.!.!.!.!.!.!.!.!.!.!.!.!.!.!.!.!.!.!.!.!.!.W.V.h.7.G.!.!.!.!.W.a. .f.W.>.d ^.^.^.^.^.",
"^.U u.P.!.!.!.!.!.!.!.!.!.!.!.!.!.!.!.!.!.!.!.!.!.!.!.!.!.!.!.!.!.!.!.!.!.!.!.!.!.!.!.!.~.K.K.Q.!.!.!.!.W.| & a.Q.u.! ^.^.^.^.^.",
"^.s ` m.!.!.!.!.!.!.!.!.!.!.!.!.!.!.!.!.!.!.!.!.!.!.!.!.!.!.!.!.!.!.!.!.!.!.Q.P.E.!.!.!.W.W.!.!.!.!.!.!.W.| & a.Q.G.2.w * ^.^.^.",
"^.^.G h.Q.!.!.!.!.!.!.!.!.!.!.!.!.!.!.!.!.!.!.!.!.!.!.!.!.!.!.!.!.!.!.!.!.!.G.6.c.E.!.!.I.I.W.!.!.!.!.!.!.s...f.!.!.d.% o O ^.^.",
"^.^.F h.Q.!.!.!.!.!.!.!.!.!.!.!.!.!.!.!.!.!.!.!.!.!.!.!.!.!.!.!.!.!.!.!.!.!.m.:.:.c.Q.Q.V.C.S.W.!.!.!.!.!.R.D.Q.!.!.a.#   X * ^.",
"^.^.F i.!.!.!.!.!.!.!.!.!.!.!.!.!.!.!.!.!.!.!.!.!.!.!.!.!.!.!.!.!.!.!.!.!.!.T.h.' ,.G.!.U.B.g.S.W.!.!.!.!.!.!.!.!.W.s.$ . o * ^.",
"^.^.F h.!.!.!.!.!.!.!.!.!.!.!.!.!.!.!.!.!.!.!.!.!.!.!.!.!.!.!.!.!.!.!.!.!.!.!.A.^ ' A.Q.R.g.9.t.V.Q.!.!.!.!.!.!.!.!.f.[ @ + = ^.",
"^.^.F i.!.!.!.!.!.!.!.!.!.!.T.b.G.!.!.!.!.!.!.!.!.!.!.!.U.n.b.T.!.!.!.!.!.!.!.L.~ L ,.u.u.*.R W w.B.F.F.I.~.!.!.!.Y.g.<.m - : ^.",
"^.^.G h.Q.!.!.!.!.!.!.!.!.!.m.-.p.Q.!.!.!.!.!.!.!.!.W.~.B.$.#.b.!.!.!.!.!.!.!.J.~ a G U P N l h E &.1.w.w.j.M.G.G.k.9.Y S ^.^.^.",
"^.^.F h.!.!.!.!.!.!.!.!.!.Q.h.Y ,.T.!.!.!.!.!.!.!.!.~.C.0.C Z i.!.!.!.!.!.!.!.J.~ 6 ; > ; ; ; , h c V A A / #.-.;.W n j ^.^.^.^.",
"^.^.G i.!.!.!.!.!.!.!.!.!.!.h.I >.T.!.!.!.!.!.!.~.I.B.q.} c B i.Q.!.!.!.!.!.!.J.~ 6 ^.^.^.^.^.^.< 3 8 8 8 r a a a t 3 ^.^.^.^.^.",
"^.^.D h.Q.!.!.!.!.!.!.!.!.!.h.I >.K.W.W.~.W.~.~.C.r.0.{ T k B i.!.!.!.!.!.!.!.J.^ 6 ^.^.^.^.^.^.^.^.^.^.^.^.^.^.^.^.^.^.^.^.^.^.",
"^.^.G i.!.!.!.!.!.!.!.!.!.!.i.L O.l.B.B.B.B.N.g.0.{ C c k 9 N i.Q.!.!.!.!.!.!.J.~ 6 ^.^.^.^.^.^.^.^.^.^.^.^.^.^.^.^.^.^.^.^.^.^.",
"^.^.G i.Q.!.!.!.!.!.!.!.!.G.,.G Z o.+.+.+.+.+.+.R b 0 , 8 > f i.!.!.!.!.!.!.!.J.~ 6 ^.^.^.^.^.^.^.^.^.^.^.^.^.^.^.^.^.^.^.^.^.^.",
"^.^.G u.E.!.!.!.!.!.!.!.Q.h._ f d z z z z z z z l 9 ; ; 7 y G u.E.!.!.!.!.!.!.P.` i ^.^.^.^.^.^.^.^.^.^.^.^.^.^.^.^.^.^.^.^.^.^.",
"^.^.d #.b.Q.!.!.!.!.!.!.!.z.' S M a 4 > > > > > > ^.^.1 g H Q =.b.Q.!.!.!.!.!.E.5.Y ^.^.^.^.^.^.^.^.^.^.^.^.^.^.^.^.^.^.^.^.^.^.",
"^.^.^.F 6.E.!.!.!.!.!.!.!.L.5.H L H p 5 ^.^.^.^.^.^.^.5 H ] _ Q 6.Q.!.!.!.!.!.Q.G.#.i ^.^.^.^.^.^.^.^.^.^.^.^.^.^.^.^.^.^.^.^.^.",
"^.^.^.e >.T.!.!.!.!.!.!.!.!.z.H Q ' Q i ^.^.^.^.^.^.^.5 H -.] H :.J.!.!.!.!.!.!.!.3.D ^.^.^.^.^.^.^.^.^.^.^.^.^.^.^.^.^.^.^.^.^.",
"^.^.^.e >.E.!.!.!.!.!.!.!.!.i.H L -.' s ^.^.^.^.^.^.^.5 S ] =.Q ' i.T.!.!.!.!.!.Q.i._ d ^.^.^.^.^.^.^.^.^.^.^.^.^.^.^.^.^.^.^.^.",
"^.^.^.e >.T.!.!.!.!.!.!.!.Q.i.H L -.] D 6 ^.^.^.^.^.^.; S Q ] ] L =.G.!.!.!.!.!.!.P.p.~ ^.^.^.^.^.^.^.^.^.^.^.^.^.^.^.^.^.^.^.^.",
"^.^.^.e :.P.!.!.!.!.!.!.!.!.h.L I ] ] I p ^.^.^.^.^.^.^.7 G ' ] D _ m.Q.!.!.!.!.!.!.J.6.! ^.^.^.^.^.^.^.^.^.^.^.^.^.^.^.^.^.^.^.",
"^.^.^.^._ h.E.!.!.!.!.!.!.!.A.=.U I J H i ^.^.^.^.^.^.^.^.s H H s P 5.J.!.!.!.!.!.!.!.J.4.U ^.^.^.^.^.^.^.^.^.^.^.^.^.^.^.^.^.^.",
"^.^.^.^.s -.G.!.!.!.!.!.!.!.E.c.@.S y e ^.^.^.^.^.^.^.^.^.^.e e ^.^.~ u.P.!.!.!.!.!.!.!.A.#.i ^.^.^.^.^.^.^.^.^.^.^.^.^.^.^.^.^.",
"^.^.^.^.; ( m.Q.!.!.!.!.!.!.!.E.u.P 6 ^.^.^.^.^.^.^.^.^.^.^.^.^.^.^.^.( i.J.K.T.P.P.T.P.J.-.a ^.^.^.^.^.^.^.^.^.^.^.^.^.^.^.^.^.",
"^.^.^.^.^.P 5.P.Q.!.!.!.!.!.!.T.p.~ e ^.^.^.^.^.^.^.^.^.^.^.^.^.^.^.^.g ] >.5.2.2.4.4.3.3._ u ^.^.^.^.^.^.^.^.^.^.^.^.^.^.^.^.^.",
"^.^.^.^.^.^.^ u.b.b.b.b.c.m.c.z.#.H ^.^.^.^.^.^.^.^.^.^.^.^.^.^.^.^.^.^.g F M F F F F F F S ^.^.^.^.^.^.^.^.^.^.^.^.^.^.^.^.^.^.",
"^.^.^.^.^.^.^.~ ` ` _ ` ` _ ` ^ F ^.^.^.^.^.^.^.^.^.^.^.^.^.^.^.^.^.^.^.^.^.^.^.^.^.^.^.^.^.^.^.^.^.^.^.^.^.^.^.^.^.^.^.^.^.^.^.",
"^.^.^.^.^.^.^.6 4 7 6 7 6 7 7 7 ^.^.^.^.^.^.^.^.^.^.^.^.^.^.^.^.^.^.^.^.^.^.^.^.^.^.^.^.^.^.^.^.^.^.^.^.^.^.^.^.^.^.^.^.^.^.^.^.",
"^.^.^.^.^.^.^.^.^.^.^.^.^.^.^.^.^.^.^.^.^.^.^.^.^.^.^.^.^.^.^.^.^.^.^.^.^.^.^.^.^.^.^.^.^.^.^.^.^.^.^.^.^.^.^.^.^.^.^.^.^.^.^.^.",
"^.^.^.^.^.^.^.^.^.^.^.^.^.^.^.^.^.^.^.^.^.^.^.^.^.^.^.^.^.^.^.^.^.^.^.^.^.^.^.^.^.^.^.^.^.^.^.^.^.^.^.^.^.^.^.^.^.^.^.^.^.^.^.^.",
"^.^.^.^.^.^.^.^.^.^.^.^.^.^.^.^.^.^.^.^.^.^.^.^.^.^.^.^.^.^.^.^.^.^.^.^.^.^.^.^.^.^.^.^.^.^.^.^.^.^.^.^.^.^.^.^.^.^.^.^.^.^.^.^.",
"^.^.^.^.^.^.^.^.^.^.^.^.^.^.^.^.^.^.^.^.^.^.^.^.^.^.^.^.^.^.^.^.^.^.^.^.^.^.^.^.^.^.^.^.^.^.^.^.^.^.^.^.^.^.^.^.^.^.^.^.^.^.^.^.",
"^.^.^.^.^.^.^.^.^.^.^.^.^.^.^.^.^.^.^.^.^.^.^.^.^.^.^.^.^.^.^.^.^.^.^.^.^.^.^.^.^.^.^.^.^.^.^.^.^.^.^.^.^.^.^.^.^.^.^.^.^.^.^.^.",
"^.^.^.^.^.^.^.^.^.^.^.^.^.^.^.^.^.^.^.^.^.^.^.^.^.^.^.^.^.^.^.^.^.^.^.^.^.^.^.^.^.^.^.^.^.^.^.^.^.^.^.^.^.^.^.^.^.^.^.^.^.^.^.^.",
"^.^.^.^.^.^.^.^.^.^.^.^.^.^.^.^.^.^.^.^.^.^.^.^.^.^.^.^.^.^.^.^.^.^.^.^.^.^.^.^.^.^.^.^.^.^.^.^.^.^.^.^.^.^.^.^.^.^.^.^.^.^.^.^.",
"^.^.^.^.^.^.^.^.^.^.^.^.^.^.^.^.^.^.^.^.^.^.^.^.^.^.^.^.^.^.^.^.^.^.^.^.^.^.^.^.^.^.^.^.^.^.^.^.^.^.^.^.^.^.^.^.^.^.^.^.^.^.^.^."
};
