/* XPM */
static char *result[] = {
/* columns rows colors chars-per-pixel */
"64 64 182 2 ",
"   c #080B12",
".  c #041337",
"X  c #1C2130",
"o  c #011342",
"O  c #021A53",
"+  c #072A7B",
"@  c #545557",
"#  c #425176",
"$  c #505A71",
"%  c gray40",
"&  c #6E6F71",
"*  c #7E7E7E",
"=  c #002680",
"-  c #002887",
";  c #00298C",
":  c #012C9A",
">  c #04329E",
",  c #0130A7",
"<  c #0133AA",
"1  c #0836AB",
"2  c #0B3AAD",
"3  c #133EAC",
"4  c #1B3CAA",
"5  c #1437A9",
"6  c #223EAA",
"7  c #1644B2",
"8  c #1946B2",
"9  c #1D49B3",
"0  c #2443AE",
"q  c #2A41AC",
"w  c #364CAF",
"e  c #3C48AB",
"r  c #234DB5",
"t  c #294DB5",
"y  c #2445B0",
"u  c #314DB4",
"i  c #2952B6",
"p  c #2654B8",
"a  c #2B54B8",
"s  c #2751B7",
"d  c #3256B9",
"f  c #345BBB",
"g  c #395EBC",
"h  c #3355B6",
"j  c #3761BD",
"k  c #3D62BE",
"l  c #3F68BF",
"z  c #4245AB",
"x  c #4A4BAA",
"c  c #4451AF",
"v  c #405DB9",
"b  c #6058AE",
"n  c #6853A8",
"m  c #745BAB",
"M  c #605EB2",
"N  c #745DB4",
"B  c #4E67A4",
"V  c #4163BF",
"C  c #4B62B9",
"Z  c #4568BF",
"A  c #5369BD",
"S  c #6669B9",
"D  c #6D6DBA",
"F  c #6C68B6",
"G  c #7F69B2",
"H  c #736BB6",
"J  c #607BBE",
"K  c #7F72B8",
"L  c #3F67C0",
"P  c #4266C0",
"I  c #456AC1",
"U  c #4A6EC3",
"Y  c #4D71C4",
"T  c #5375C6",
"R  c #567AC7",
"E  c #5A79C7",
"W  c #5C7CC9",
"Q  c #5A72C3",
"!  c #617ECA",
"~  c #697BC4",
"^  c #7A75C2",
"/  c #8A6EB4",
"(  c #8973B7",
")  c #917CBB",
"_  c #A36FAE",
"`  c #6583CC",
"'  c #6986CC",
"]  c #6C8ACE",
"[  c #7587CA",
"{  c #7F91CF",
"}  c #6E8FD0",
"|  c #728ED0",
" . c #7691D1",
".. c #7B95D3",
"X. c #7E99D5",
"o. c #888888",
"O. c #AB8ABF",
"+. c #BA89BB",
"@. c #9FA1AB",
"#. c #A9A9A9",
"$. c #B5B5B5",
"%. c #BEBEBE",
"&. c #8689C7",
"*. c #8886C8",
"=. c #8191CE",
"-. c #839CD6",
";. c #899ED6",
":. c #AA8BC1",
">. c #B78FC0",
",. c #A89CCD",
"<. c #B796C8",
"1. c #8BA0D7",
"2. c #8BA2D8",
"3. c #86A1D8",
"4. c #91A6DA",
"5. c #95AADC",
"6. c #9AADDD",
"7. c #98A7D9",
"8. c #9EB1DF",
"9. c #BBA4CD",
"0. c #A4A1D3",
"q. c #BBAAD2",
"w. c #A1B3DF",
"e. c #B6B4D9",
"r. c #A4B5E1",
"t. c #A7B8E2",
"y. c #ACBCE4",
"u. c #B0BFE5",
"i. c #C19DC7",
"p. c #CAA7CD",
"a. c #C1ABD2",
"s. c #CCB2D3",
"d. c #D5B6D5",
"f. c #DABCDA",
"g. c #B3C2E6",
"h. c #B9C6E7",
"j. c #BBC9E8",
"k. c #B8C6E8",
"l. c gray76",
"z. c #CBCBCC",
"x. c #CCC7D9",
"c. c #DBC4DD",
"v. c #D3D3D3",
"b. c #DEDEDE",
"n. c #F2C2DE",
"m. c #C2CEEB",
"M. c #C8CAE5",
"N. c #D8C8E4",
"B. c #C5D1EC",
"V. c #CBD5ED",
"C. c #CED8EF",
"Z. c #D0D9EF",
"A. c #DCDCEE",
"S. c #D6D4EB",
"D. c #CFDAF0",
"F. c #D4DDF1",
"G. c #D8DFF2",
"H. c #E3CFE5",
"J. c #E5D2E5",
"K. c #E7DAEB",
"L. c #EBDCEA",
"P. c #E9D5E8",
"I. c #F6D5E8",
"U. c #DCE3F3",
"Y. c #E5E3E5",
"T. c #EEE2EE",
"R. c gray91",
"E. c #E2E6F5",
"W. c #EDE7F3",
"Q. c #E4E9F6",
"!. c #E9ECF7",
"~. c #EAEEF8",
"^. c #F5EDF5",
"/. c #FCEFF6",
"(. c #EEF1F9",
"). c #F6F2F6",
"_. c #F8F3F7",
"`. c #F3F5FB",
"'. c #F9F5F9",
"]. c #F6F8FC",
"[. c #FFFFFF",
"{. c None",
/* pixels */
"{.{.{.{.{.{.{.{.{.{.{.{.{.{.{.{.{.{.{.{.{.{.{.{.{.{.{.{.{.{.{.{.{.{.{.{.{.{.{.{.{.{.{.{.{.{.{.{.{.{.{.{.{.{.{.{.{.{.{.{.{.{.{.{.",
"{.{.{.{.{.{.{.{.{.{.{.{.{.{.{.{.{.{.{.{.{.{.{.{.{.{.{.{.{.{.{.{.{.{.{.{.{.{.{.{.{.{.{.{.{.{.{.{.{.{.{.{.{.{.{.{.{.{.{.{.{.{.{.{.",
"{.{.{.{.{.{.{.{.{.{.{.{.{.{.{.{.{.{.{.{.{.{.{.{.{.{.{.{.{.{.{.{.{.{.{.{.{.{.{.{.{.{.{.{.{.{.{.{.{.{.{.{.{.{.{.{.{.{.{.{.{.{.{.{.",
"{.{.{.{.{.{.{.{.{.{.{.{.{.{.{.{.{.{.{.{.{.{.{.{.{.{.{.{.{.{.{.{.{.{.{.{.{.{.{.{.{.{.{.{.{.{.{.{.{.{.{.{.{.{.{.{.{.{.{.{.{.{.{.{.",
"{.{.{.{.{.{.{.{.{.{.{.{.{.{.{.{.{.{.{.{.{.{.{.{.{.{.{.{.{.{.{.{.{.{.{.{.{.{.{.{.{.{.{.{.{.{.{.{.{.{.{.{.{.{.{.{.{.{.{.{.{.{.{.{.",
"{.{.{.{.{.{.{.{.{.{.{.{.{.{.{.{.{.{.{.{.{.{.{.{.{.{.{.{.{.{.{.{.{.{.{.{.{.{.{.{.{.{.{.{.{.{.{.{.{.{.{.{.{.{.{.{.{.{.{.{.{.{.{.{.",
"{.{.{.{.{.{.{.{.{.{.{.{.{.{.{.{.{.{.{.{.{.{.{.{.{.{.{.{.{.{.{.{.{.{.{.{.{.{.{.{.{.{.{.{.{.{.{.{.{.{.{.{.{.{.{.{.{.{.{.{.{.{.{.{.",
"{.{.{.{.{.{.{.{.{.{.{.{.{.{.{.{.{.{.{.{.{.{.f g g g g {.{.{.{.{.{.{.{.{.{.{.{.{.{.{.{.{.{.{.{.{.{.{.{.{.{.{.{.{.{.{.{.{.{.{.{.{.",
"{.{.{.{.{.{.{.{.{.{.{.{.{.{.{.7 8 7 7 8 9 T X.2.2.2...U 9 7 {.{.{.{.{.{.{.{.{.{.{.{.{.{.{.{.{.{.{.{.{.{.{.{.{.{.{.{.{.{.{.{.{.{.",
"{.{.{.{.{.{.{.{.{.{.{.{.{.g U Y U U Y U T ;.F.(.(.(.F.-.Y Y U {.{.{.{.{.{.{.{.{.{.{.{.{.{.{.{.{.{.{.{.{.{.{.{.{.{.{.{.{.{.{.{.{.",
"{.{.{.{.{.{.{.{.{.{.r t a ` t.j.h.j.h.j.j.F.`.[.[.[.(.F.j.j.t.W t t r {.{.{.{.{.{.{.{.{.{.{.{.{.{.{.{.{.{.{.{.{.{.{.{.{.{.{.{.{.",
"{.{.{.{.{.{.{.{.{.I ] |  .t.U.`.].].].].].].[.[.[.[.[.].].`.U.8. .| ] P {.{.{.{.{.{.{.{.{.{.{.{.{.{.{.{.{.{.{.{.{.{.{.{.{.{.{.{.",
"{.{.{.{.{.{.{.f V ..j.F.G.!.].[.[.[.[.[.[.[.[.[.[.[.[.[.[.[.].Q.U.F.j.| k f {.{.{.{.{.{.{.{.{.{.{.{.{.{.{.{.{.{.{.{.{.{.{.{.{.{.",
"{.{.{.{.{.{.I ..5.j.`.[.[.[.[.[.[.[.[.[.[.[.[.[.[.[.[.[.[.[.[.[.[.[.~.h.6. .P {.{.{.{.{.{.{.{.{.{.{.{.{.{.{.{.{.{.{.{.{.{.{.{.{.",
"{.{.{.{.{.k | B.`.].[.[.[.[.[.[.[.[.[.[.[.[.[.[.[.[.[.[.[.[.[.[.[.[.[.].`.j.} {.{.{.{.{.{.{.{.{.{.{.{.{.{.{.{.{.{.{.{.{.{.{.{.{.",
"{.{.{.{.{.] j.~.[.[.[.[.[.[.[.[.[.[.[.[.[.[.[.[.[.[.[.[.[.[.[.[.[.[.[.[.[.!.u.' {.{.{.{.{.{.{.{.{.{.{.{.{.{.{.{.{.{.{.{.{.{.{.{.",
"{.{.{.{.W t.Q.[.[.[.[.[.[.[.[.[.[.[.[.[.[.[.[.[.[.[.[.[.[.[.[.[.[.[.[.[.[.[.E.r.E {.{.{.{.{.{.{.{.{.{.{.{.{.{.{.{.{.{.{.{.{.{.{.",
"{.{.{.8 ..U.].[.[.[.[.[.[.[.[.[.[.[.[.[.[.[.[.[.[.[.[.[.[.[.[.[.[.[.[.[.[.[.].U.4.U {.{.{.{.k P f {.{.{.{.{.{.{.{.{.{.{.{.{.{.{.",
"{.{.7 i 4.(.[.[.[.[.[.[.[.[.[.[.[.[.[.[.[.[.[.[.[.[.[.[.[.[.[.[.[.[.[.[.[.[.[.].C.;.I {.{.Y 2.7.' {.{.{.{.{.{.{.{.{.{.{.{.{.{.{.",
"{.k E ' g.`.[.[.[.[.[.[.[.[.[.[.[.[.[.[.[.[.[.[.[.[.[.[.[.[.[.[.[.[.[.[.[.[.[.[.].m. .f 2 W M.H.0.W {.{.{.{.{.{.{.{.{.{.{.{.{.{.",
"{.R t.V.Q.].[.[.[.[.[.[.[.[.[.[.[.[.[.[.[.[.[.[.[.[.[.[.[.[.[.[.[.[.[.[.[.[.[.[.[.~.g.Q 4 W N.n.f.7.T d d d d d {.{.{.{.{.{.{.{.",
"2 W C.].[.[.[.[.[.[.[.[.[.[.[.[.[.[.[.[.[.[.[.[.[.[.[.[.[.[.[.[.[.[.[.[.[.[.[.[.[.].A.*.w ` M.I.I.S.6.-.-.-.-.X.E {.{.{.{.{.{.{.",
"1 W Z.[.[.[.[.[.[.[.[.[.[.[.[.[.[.[.[.[.[.[.[.[.[.[.[.[.[.[.[.[.[.[.[.[.[.[.[.[.[.[.W.a.H ~ u.W.'.].~.Q.E.Q.Q.G.5.Y {.{.{.{.{.{.",
"2 W Z.[.[.[.[.[.[.[.[.[.[.[.[.[.[.[.[.[.[.[.[.[.[.[.[.[.[.[.[.[.[.[.[.[.[.[.[.[.[.[.'.K.q.&.;.Z.[.[.[.[.[.'.).].F.-.f {.{.{.{.{.",
"2 ` V.[.[.[.[.[.[.[.[.[.[.[.[.[.[.[.[.[.[.[.[.[.[.[.[.[.[.[.[.[.[.[.[.[.[.[.[.[.[.[.[.'.K.e.7.Z.[.[.[.[.[.b.l.b.`.r.k {.{.{.{.{.",
"{.R h.(.[.[.[.[.[.[.[.[.[.[.[.[.[.[.[.[.[.[.[.[.[.[.[.[.[.[.[.[.[.[.[.[.[.[.[.[.[.[.[.[._.E.U.(.[.[.[.[.].$.* %.].g.R {.{.{.{.{.",
"{.I 2.F.[.[.[.[.[.[.[.[.[.[.[.[.[.[.[.[.[.[.[.[.[.[.[.[.[.[.[.[.[.[.[.[.[.[.[.].].[.[.[.[.'.[.[.[.[.[.[.].#.% $.'.F.2.k > {.{.{.",
"{.{.U g.].[.[.[.[.[.[.[.[.[.[.[.[.[.[.[.[.[.[.[.[.[.[.[.[.[.[.[.[.[.[.[.[.[.`.F.E.'.[.[._./.[.[.[.[.[.[.'.%.o.l.].'.M.B + = {.{.",
"{.{.k u.].[.[.[.[.[.[.[.[.[.[.[.[.[.[.[.[.[.[.[.[.[.[.[.[.[.[.[.[.[.[.[.[.[.U.8.w.!.[.].T.P.^.[.[.[.[.[.[.Y.v.R.[.[.z.$ . O - {.",
"{.{.L u.].[.[.[.[.[.[.[.[.[.[.[.[.[.[.[.[.[.[.[.[.[.[.[.[.[.[.[.[.[.[.[.[.[.Q.w.3.h.~.[.T.J.P.).[.[.[.[.[.[.'.[.[.[.z.@   o - {.",
"{.{.V g.[.[.[.[.[.[.[.[.[.[.[.[.[.[.[.[.[.[.[.[.[.[.[.[.[.[.[.[.[.[.[.[.[.[.].Z.X.-.G.[.'.J.f.J.).[.[.[.[.[.[.[.[.[.v.& X O ; {.",
"{.{.P y.].[.[.[.[.[.[.[.[.[.[.].].[.[.[.[.[.[.[.[.[.[.[.[.'.].].[.[.[.[.[.[.[.~.X.` B.(.`.c.i.p.J._.'.'.[.].[.[.[.'.K.#.# + : {.",
"{.{.P g.].[.[.[.[.[.[.[.[.[.(.F.U.].[.[.[.[.[.[.[.[.[.[.^.A.C.~.[.[.[.[.[.[.[.~...T 7.g.g.0.( / <.J.L.T.W.^.].[.[./.P.e.~ 3 , {.",
"{.{.P u.[.[.[.[.[.[.[.[.[.[.F.2.t.`.[.[.[.[.[.[.[.[.[._.N.,.=.B.[.[.[.[.[.[.[.~...a k I Z V w e H :.9.a.a.f.A.Q.E.N.i.^ v {.{.{.",
"{.{.k u.].[.[.[.[.[.[.[.[.[.V.` 2.(.[.[.[.[.[.[.[.[.).L.p.( A g.].[.[.[.[.[.[.~. .8 1 2 2 2 1 5 e b F D D [ -.2.1.*.N x {.{.{.{.",
"{.{.P y.[.[.[.[.[.[.[.[.[.[.V.` 1.(.[.[.[.[.[.[.).W.K.f.+.m C y.].[.[.[.[.[.[.!...9 {.{.{.{.{.{.{.0 q q q t h f h u 6 {.{.{.{.{.",
"{.{.V u.].[.[.[.[.[.[.[.[.[.B.` ;.W.'.[.].].'._.L.c.s.>._ n C g.].[.[.[.[.[.[.~...r {.{.{.{.{.{.{.{.{.{.{.{.{.{.{.{.{.{.{.{.{.{.",
"{.{.k g.[.[.[.[.[.[.[.[.[.[.V.` =.S.T.K.T.T.T.P.d.+.*.G m x C y.[.[.[.[.[.[.[.~. .r {.{.{.{.{.{.{.{.{.{.{.{.{.{.{.{.{.{.{.{.{.{.",
"{.{.V u.].[.[.[.[.[.[.[.[.`.j.R D ,.9.9.9.9.9.9.O.G x q 0 4 f g.[.[.[.[.[.[.[.!...9 {.{.{.{.{.{.{.{.{.{.{.{.{.{.{.{.{.{.{.{.{.{.",
"{.{.k y.].[.[.[.[.[.[.[.].F.;.I C S S S S S S S M x 0 1 7 7 j g.].[.[.[.[.[.[.!.-.r {.{.{.{.{.{.{.{.{.{.{.{.{.{.{.{.{.{.{.{.{.{.",
"{.{.g 5.U.].[.[.[.[.[.[.[.B.} L j d y 0 0 0 0 0 0 4 {.2 p k Y 6.U.].[.[.[.[.[.(.6.U {.{.{.{.{.{.{.{.{.{.{.{.{.{.{.{.{.{.{.{.{.{.",
"{.{.{.` g.].[.[.[.[.[.[.].U.4.Y I l 9 1 {.{.{.{.{.{.{.2 L ` ] } g.`.[.[.[.[.[.].C...f {.{.{.{.{.{.{.{.{.{.{.{.{.{.{.{.{.{.{.{.{.",
"{.{.{.r 2.(.[.[.[.[.[.[.[.].V.E T ] Y r {.{.{.{.{.{.{.7 U 3.X.Y 2.~.[.[.[.[.[.[.].t.g {.{.{.{.{.{.{.{.{.{.{.{.{.{.{.{.{.{.{.{.{.",
"{.{.{.r ;.~.[.[.[.[.[.[.[.[.V.W Y 3.} j {.{.{.{.{.{.{.7 I 3.X.R -.U.].[.[.[.[.[.[.u.T {.{.{.{.{.{.{.{.{.{.{.{.{.{.{.{.{.{.{.{.{.",
"{.{.{.r ;.(.[.[.[.[.[.[.[.[.B.R Y 3.X.j {.{.{.{.{.{.{.2 j } -.} ] t.!.[.[.[.[.[.[.F.4.U {.{.{.{.{.{.{.{.{.{.{.{.{.{.{.{.{.{.{.{.",
"{.{.{.9 ;.~.[.[.[.[.[.[.[.].V.` Y 3.3.U r {.{.{.{.{.{.7 p R X.3.R | F.[.[.[.[.[.[.`.V.-.P {.{.{.{.{.{.{.{.{.{.{.{.{.{.{.{.{.{.{.",
"{.{.{.r -.E.].[.[.[.[.[.[.[.V.` R X...` f {.{.{.{.{.{.{.7 L } X.U W B.].[.[.[.[.[.[.~.j.| {.{.{.{.{.{.{.{.{.{.{.{.{.{.{.{.{.{.{.",
"{.{.{.{.' j.(.[.[.[.[.[.[.[.U.3.` ` R T f {.{.{.{.{.{.{.{.p Y T g T r.U.[.[.[.[.[.[.[.`.y.W {.{.{.{.{.{.{.{.{.{.{.{.{.{.{.{.{.{.",
"{.{.{.{.a  .U.[.[.[.[.[.[.[.].F.;.k 9 8 {.{.{.{.{.{.{.{.{.{.8 8 {.{.E y.~.[.[.[.[.[.[.].!.5.g {.{.{.{.{.{.{.{.{.{.{.{.{.{.{.{.{.",
"{.{.{.{.2 ! V.].[.[.[.[.[.[.[.].j.` 9 < {.{.{.{.{.{.{.{.{.{.{.{.{.{.{.] g.~.(.`.(.`.`.`.~.8.g {.{.{.{.{.{.{.{.{.{.{.{.{.{.{.{.{.",
"{.{.{.{.{.T y.Q.[.[.[.[.[.[.[.].V. .a {.{.{.{.{.{.{.{.{.{.{.{.{.{.{.{.g ..y.g.g.g.g.g.g.y.-.f {.{.{.{.{.{.{.{.{.{.{.{.{.{.{.{.{.",
"{.{.{.{.{.{. .j.U.Q.U.Q.U.Q.E.U.r.W {.{.{.{.{.{.{.{.{.{.{.{.{.{.{.{.{.{.P E E R R R E E R U {.{.{.{.{.{.{.{.{.{.{.{.{.{.{.{.{.{.",
"{.{.{.{.{.{.g ..5.8.6.8.6.8.6.4.W {.{.{.{.{.{.{.{.{.{.{.{.{.{.{.{.{.{.{.{.< < < < < < < < {.{.{.{.{.{.{.{.{.{.{.{.{.{.{.{.{.{.{.",
"{.{.{.{.{.{.{.r p i s i p i i p {.{.{.{.{.{.{.{.{.{.{.{.{.{.{.{.{.{.{.{.{.{.{.{.{.{.{.{.{.{.{.{.{.{.{.{.{.{.{.{.{.{.{.{.{.{.{.{.",
"{.{.{.{.{.{.{.{.{.{.{.{.{.{.{.{.{.{.{.{.{.{.{.{.{.{.{.{.{.{.{.{.{.{.{.{.{.{.{.{.{.{.{.{.{.{.{.{.{.{.{.{.{.{.{.{.{.{.{.{.{.{.{.{.",
"{.{.{.{.{.{.{.{.{.{.{.{.{.{.{.{.{.{.{.{.{.{.{.{.{.{.{.{.{.{.{.{.{.{.{.{.{.{.{.{.{.{.{.{.{.{.{.{.{.{.{.{.{.{.{.{.{.{.{.{.{.{.{.{.",
"{.{.{.{.{.{.{.{.{.{.{.{.{.{.{.{.{.{.{.{.{.{.{.{.{.{.{.{.{.{.{.{.{.{.{.{.{.{.{.{.{.{.{.{.{.{.{.{.{.{.{.{.{.{.{.{.{.{.{.{.{.{.{.{.",
"{.{.{.{.{.{.{.{.{.{.{.{.{.{.{.{.{.{.{.{.{.{.{.{.{.{.{.{.{.{.{.{.{.{.{.{.{.{.{.{.{.{.{.{.{.{.{.{.{.{.{.{.{.{.{.{.{.{.{.{.{.{.{.{.",
"{.{.{.{.{.{.{.{.{.{.{.{.{.{.{.{.{.{.{.{.{.{.{.{.{.{.{.{.{.{.{.{.{.{.{.{.{.{.{.{.{.{.{.{.{.{.{.{.{.{.{.{.{.{.{.{.{.{.{.{.{.{.{.{.",
"{.{.{.{.{.{.{.{.{.{.{.{.{.{.{.{.{.{.{.{.{.{.{.{.{.{.{.{.{.{.{.{.{.{.{.{.{.{.{.{.{.{.{.{.{.{.{.{.{.{.{.{.{.{.{.{.{.{.{.{.{.{.{.{.",
"{.{.{.{.{.{.{.{.{.{.{.{.{.{.{.{.{.{.{.{.{.{.{.{.{.{.{.{.{.{.{.{.{.{.{.{.{.{.{.{.{.{.{.{.{.{.{.{.{.{.{.{.{.{.{.{.{.{.{.{.{.{.{.{.",
"{.{.{.{.{.{.{.{.{.{.{.{.{.{.{.{.{.{.{.{.{.{.{.{.{.{.{.{.{.{.{.{.{.{.{.{.{.{.{.{.{.{.{.{.{.{.{.{.{.{.{.{.{.{.{.{.{.{.{.{.{.{.{.{.",
"{.{.{.{.{.{.{.{.{.{.{.{.{.{.{.{.{.{.{.{.{.{.{.{.{.{.{.{.{.{.{.{.{.{.{.{.{.{.{.{.{.{.{.{.{.{.{.{.{.{.{.{.{.{.{.{.{.{.{.{.{.{.{.{.",
"{.{.{.{.{.{.{.{.{.{.{.{.{.{.{.{.{.{.{.{.{.{.{.{.{.{.{.{.{.{.{.{.{.{.{.{.{.{.{.{.{.{.{.{.{.{.{.{.{.{.{.{.{.{.{.{.{.{.{.{.{.{.{.{."
};
