/* XPM */
static char *_fcad87b3f38451981c15556637254beV4K18LyBPPjYdKyR[] = {
/* columns rows colors chars-per-pixel */
"64 64 7 1 ",
"  c None",
". c #11151A",
"X c #12161B",
"o c #493962",
"O c #6B6993",
"+ c #99A9C7",
"@ c white",
/* pixels */
"                  @@@@@@@@@                   @@@@@@@@@         ",
"                  @@@@@@@@@                   @@@@@@@@@         ",
"                  @@@@@@@@@                   @@@@@@@@@         ",
"                  @@@@@@@@@                   @@@@@@@@@         ",
"                  @@@@@++++@@@@@@@@@@@@@@@@@@@@@@@+++++         ",
"                  @@@@@++++@@@@@@@@@@@@@@@@@@@@@@@+++++         ",
"                  @@@@@++++@@@@@@@@@@@@@@@@@@@@@@@+++++         ",
"                  @@@@@++++@@@@@@@@@@@@@@@@@@@@@@@+++++         ",
"                  @@@@@++++@@@@@@@@@@@@@@@@@@@@@@@+++++         ",
"                       @@@@@@@@@@@@@@@@@@@@@@@@@@@@@@@@         ",
"                       @@@@@@@@@@@@@@@@@@@@@@@@@@@@@@@@         ",
"                       @@@@@@@@@@@@@@@@@@@@@@@@@@@@@@@@         ",
"                       @@@@@@@@@@@@@@@@@@@@@@@@@@@@@@@@         ",
"                       @@@@+++++XXXXX@@@@@@@@@XXXX+++++         ",
"                       @@@@+++++XXXXX@@@@@@@@@XXXX+++++         ",
"                       @@@@+++++XXXXX@@@@@@@@@XXXX+++++         ",
"                       @@@@+++++XXXXX@@@@@@@@@XXXX+++++         ",
"                       @@@@@@@@@+++++XXXXXXXXX++++@@@@@         ",
"                       @@@@@@@@@+++++XXXXXXXXX++++@@@@@         ",
"                       @@@@@@@@@+++++XXXXXXXXX++++@@@@@         ",
"                       @@@@@@@@@+++++XXXXXXXXX++++@@@@@         ",
"                       @@@@@@@@@@@@@@@@@@@@@@@@@@@@@@@@         ",
"                       @@@@@@@@@@@@@@@@@@@@@@@@@@@@@@@@         ",
"                       @@@@@@@@@@@@@@@@@@@@@@@@@@@@@@@@         ",
"                       @@@@@@@@@@@@@@@@@@@@@@@@@@@@@@@@         ",
"                       @@@@@@@@@@@@@@@@@@@@@@@@@@@@@@@@         ",
"                       ++++@@@@@@@@@@XXXXXXXXX@@@@@@@@@         ",
"                       ++++@@@@@@@@@@XXXXXXXXX@@@@@@@@@         ",
"                       ++++@@@@@@@@@@XXXXXXXXX@@@@@@@@@         ",
"                       ++++@@@@@@@@@@XXXXXXXXX@@@@@@@@@         ",
"                  @@@@@@@@@+++++@@@@@@@@@@@@@@@@@@+++++@@@@     ",
"                  @@@@@@@@@+++++@@@@@@@@@@@@@@@@@@+++++@@@@     ",
"                  @@@@@@@@@+++++@@@@@@@@@@@@@@@@@@+++++@@@@     ",
"                  @@@@@@@@@+++++@@@@@@@@@@@@@@@@@@+++++@@@@     ",
"              @@@@@@@@@++++@@@@@++++++++++++++++++@@@@@@@@@@@@@@",
"              @@@@@@@@@++++@@@@@++++++++++++++++++@@@@@@@@@@@@@@",
"              @@@@@@@@@++++@@@@@++++++++++++++++++@@@@@@@@@@@@@@",
"              @@@@@@@@@++++@@@@@++++++++++++++++++@@@@@@@@@@@@@@",
"     oooo     @@@@@@@@@++++@@@@@@@@@@+++++++++@@@@@@@@@@@@@@@@@@",
"     oooo     @@@@@@@@@++++@@@@@@@@@@+++++++++@@@@@@@@@@@@@@@@@@",
"     oooo     @@@@@@@@@++++@@@@@@@@@@+++++++++@@@@@@@@@@@@@@@@@@",
"     oooo     @@@@@@@@@++++@@@@@@@@@@+++++++++@@@@@@@@@@@@@@@@@@",
"     oooo     @@@@@@@@@++++@@@@@@@@@@+++++++++@@@@@@@@@@@@@@@@@@",
"oooooooooooooo@@@@@@@@@ooooooooo@@@@@@@@@@@@@@@@@@+++++@@@@@@@@@",
"oooooooooooooo@@@@@@@@@ooooooooo@@@@@@@@@@@@@@@@@@+++++@@@@@@@@@",
"oooooooooooooo@@@@@@@@@ooooooooo@@@@@@@@@@@@@@@@@@+++++@@@@@@@@@",
"oooooooooooooo@@@@@@@@@ooooooooo@@@@@@@@@@@@@@@@@@+++++@@@@@@@@@",
"         OOOOO@@@@@@@@@X...ooooo+++++@@@@@@@@@+++++++++@@@@     ",
"         OOOOO@@@@@@@@@X...ooooo+++++@@@@@@@@@+++++++++@@@@     ",
"         OOOOO@@@@@@@@@X...ooooo+++++@@@@@@@@@+++++++++@@@@     ",
"         OOOOO@@@@@@@@@X...ooooo+++++@@@@@@@@@+++++++++@@@@     ",
"              OOOOOOOOOooooooooo++++++++++++++++++@@@@@         ",
"              OOOOOOOOOooooooooo++++++++++++++++++@@@@@         ",
"              OOOOOOOOOooooooooo++++++++++++++++++@@@@@         ",
"              OOOOOOOOOooooooooo++++++++++++++++++@@@@@         ",
"                       @@@@@@@@@@@@@@+++++++++++++@@@@@         ",
"                       @@@@@@@@@@@@@@+++++++++++++@@@@@         ",
"                       @@@@@@@@@@@@@@+++++++++++++@@@@@         ",
"                       @@@@@@@@@@@@@@+++++++++++++@@@@@         ",
"                       @@@@@@@@@@@@@@+++++++++++++@@@@@         ",
"                       @@@@@@@@@@@@@@@@@@++++++++++++++@@@@     ",
"                       @@@@@@@@@@@@@@@@@@++++++++++++++@@@@     ",
"                       @@@@@@@@@@@@@@@@@@++++++++++++++@@@@     ",
"                       @@@@@@@@@@@@@@@@@@++++++++++++++@@@@     "
};
