/* XPM */
static char *ad0d92ee449c468caebac152d2ab6e43xU1OxlDEfcWZCDxx[] = {
/* columns rows colors chars-per-pixel */
"64 64 11 1 ",
"  c None",
". c black",
"X c #692500",
"o c #A63E15",
"O c #BD4E23",
"+ c #E15700",
"@ c #F47113",
"# c #F58C44",
"$ c #EDB291",
"% c #EFBFA3",
"& c #FBDAC4",
/* pixels */
"                                                                ",
"                                                                ",
"                                                                ",
"                                                                ",
"            OOOOOOOO                                            ",
"            OOOOOOOO                                            ",
"            OOOOOOOO                                            ",
"            OOOOOOOO                                            ",
"        OOOO####OOOO                                            ",
"        OOOO####OOOO                                            ",
"        OOOO####OOOO                                            ",
"        OOOO####OOOO                                            ",
"    oooo++++########OOOO                                        ",
"    oooo++++########OOOO                                        ",
"    oooo++++########OOOO                                        ",
"    oooo++++########OOOO                                        ",
"    oooooooo++++@@@@$$$$OOOOOOOO    OOOOOOOO                    ",
"    oooooooo++++@@@@$$$$OOOOOOOO    OOOOOOOO                    ",
"    oooooooo++++@@@@$$$$OOOOOOOO    OOOOOOOO                    ",
"    oooooooo++++@@@@$$$$OOOOOOOO    OOOOOOOO                    ",
"            oooo$$$$%%%%&&&&@@@@OOOO++++%%%%OOOO                ",
"            oooo$$$$%%%%&&&&@@@@OOOO++++%%%%OOOO                ",
"            oooo$$$$%%%%&&&&@@@@OOOO++++%%%%OOOO                ",
"            oooo$$$$%%%%&&&&@@@@OOOO++++%%%%OOOO                ",
"                XXXX$$$$@@@@@@@@@@@@@@@@&&&&OOOO                ",
"                XXXX$$$$@@@@@@@@@@@@@@@@&&&&OOOO                ",
"                XXXX$$$$@@@@@@@@@@@@@@@@&&&&OOOO                ",
"                XXXX$$$$@@@@@@@@@@@@@@@@&&&&OOOO                ",
"                XXXXOOOO@@@@%%%%&&&&&&&&%%%%OOOO                ",
"                XXXXOOOO@@@@%%%%&&&&&&&&%%%%OOOO                ",
"                XXXXOOOO@@@@%%%%&&&&&&&&%%%%OOOO                ",
"                XXXXOOOO@@@@%%%%&&&&&&&&%%%%OOOO                ",
"                XXXXOOOO############@@@@@@@@@@@@OOOO            ",
"                XXXXOOOO############@@@@@@@@@@@@OOOO            ",
"                XXXXOOOO############@@@@@@@@@@@@OOOO            ",
"                XXXXOOOO############@@@@@@@@@@@@OOOO            ",
"                    XXXXOOOO############@@@@OOOOOOOO            ",
"                    XXXXOOOO############@@@@OOOOOOOO            ",
"                    XXXXOOOO############@@@@OOOOOOOO            ",
"                    XXXXOOOO############@@@@OOOOOOOO            ",
"                    XXXX$$$$$$$$@@@@@@@@%%%%&&&&&&&&OOOO        ",
"                    XXXX$$$$$$$$@@@@@@@@%%%%&&&&&&&&OOOO        ",
"                    XXXX$$$$$$$$@@@@@@@@%%%%&&&&&&&&OOOO        ",
"                    XXXX$$$$$$$$@@@@@@@@%%%%&&&&&&&&OOOO        ",
"                        XXXXOOOOOOOO@@@@%%%%@@@@....OOOO        ",
"                        XXXXOOOOOOOO@@@@%%%%@@@@....OOOO        ",
"                        XXXXOOOOOOOO@@@@%%%%@@@@....OOOO        ",
"                        XXXXOOOOOOOO@@@@%%%%@@@@....OOOO        ",
"                            XXXXOOOO$$$$$$$$@@@@@@@@OOOO        ",
"                            XXXXOOOO$$$$$$$$@@@@@@@@OOOO        ",
"                            XXXXOOOO$$$$$$$$@@@@@@@@OOOO        ",
"                            XXXXOOOO$$$$$$$$@@@@@@@@OOOO        ",
"                                XXXXXXXXOOOO++++++++XXXX        ",
"                                XXXXXXXXOOOO++++++++XXXX        ",
"                                XXXXXXXXOOOO++++++++XXXX        ",
"                                XXXXXXXXOOOO++++++++XXXX        ",
"                                        XXXXXXXXXXXX            ",
"                                        XXXXXXXXXXXX            ",
"                                        XXXXXXXXXXXX            ",
"                                        XXXXXXXXXXXX            ",
"                                                                ",
"                                                                ",
"                                                                ",
"                                                                "
};
